<?xml version="1.0" encoding="utf-8"?>
<!-- Generator: Adobe Illustrator 23.0.3, SVG Export Plug-In . SVG Version: 6.00 Build 0)  -->
<svg version="1.2" baseProfile="tiny" id="g-Sin-t_tulo-1-Mesa_de_trabajo_1-img" xmlns="http://www.w3.org/2000/svg" xmlns:xlink="http://www.w3.org/1999/xlink"
	 x="0px" y="0px" viewBox="0 0 655 2243.368" xml:space="preserve">
<g>
	<g>
		<g>
			
				<line fill="none" stroke="#87868A" stroke-width="0.7" stroke-miterlimit="3.8636" x1="4.082" y1="1464.822" x2="654.237" y2="1464.822"/>
			<path fill="none" stroke="#87868A" stroke-width="0.4" stroke-miterlimit="3.8636" d="M654.237,1445.572"/>
			
				<line fill="none" stroke="#87868A" stroke-width="0.7" stroke-miterlimit="3.8636" x1="4.082" y1="1426.316" x2="654.237" y2="1426.316"/>
			<path fill="none" stroke="#87868A" stroke-width="0.4" stroke-miterlimit="3.8636" d="M654.237,1407.066"/>
			
				<line fill="none" stroke="#87868A" stroke-width="0.7" stroke-miterlimit="3.8636" x1="4.082" y1="1387.811" x2="654.237" y2="1387.811"/>
			<path fill="none" stroke="#87868A" stroke-width="0.4" stroke-miterlimit="3.8636" d="M654.237,1368.555"/>
			
				<line fill="none" stroke="#87868A" stroke-width="0.7" stroke-miterlimit="3.8636" x1="4.082" y1="1349.304" x2="654.237" y2="1349.304"/>
			<path fill="none" stroke="#87868A" stroke-width="0.4" stroke-miterlimit="3.8636" d="M654.237,1330.051"/>
			
				<line fill="none" stroke="#87868A" stroke-width="0.7" stroke-miterlimit="3.8636" x1="4.138" y1="1310.798" x2="654.237" y2="1310.798"/>
			<path fill="none" stroke="#87868A" stroke-width="0.4" stroke-miterlimit="3.8636" d="M654.237,1291.545"/>
			
				<line fill="none" stroke="#87868A" stroke-width="0.7" stroke-miterlimit="3.8636" x1="4.082" y1="1272.292" x2="654.237" y2="1272.292"/>
			<path fill="none" stroke="#87868A" stroke-width="0.4" stroke-miterlimit="3.8636" d="M654.237,1253.042"/>
			
				<line fill="none" stroke="#87868A" stroke-width="0.7" stroke-miterlimit="3.8636" x1="4.082" y1="1233.786" x2="654.237" y2="1233.786"/>
			<path fill="none" stroke="#87868A" stroke-width="0.4" stroke-miterlimit="3.8636" d="M654.237,1214.532"/>
			
				<line fill="none" stroke="#87868A" stroke-width="0.7" stroke-miterlimit="3.8636" x1="4.082" y1="1195.281" x2="654.237" y2="1195.281"/>
			<path fill="none" stroke="#87868A" stroke-width="0.4" stroke-miterlimit="3.8636" d="M654.237,1176.025"/>
			
				<line fill="none" stroke="#87868A" stroke-width="0.7" stroke-miterlimit="3.8636" x1="4.082" y1="1156.772" x2="654.237" y2="1156.772"/>
			<path fill="none" stroke="#87868A" stroke-width="0.4" stroke-miterlimit="3.8636" d="M654.237,1137.521"/>
			
				<line fill="none" stroke="#87868A" stroke-width="0.7" stroke-miterlimit="3.8636" x1="4.138" y1="1118.268" x2="654.237" y2="1118.268"/>
			<path fill="none" stroke="#87868A" stroke-width="0.4" stroke-miterlimit="3.8636" d="M654.237,1099.016"/>
			<path fill="none" stroke="#87868A" stroke-width="0.4" stroke-miterlimit="3.8636" stroke-dasharray="1.8,1.8" d="
				M0.149,1099.016"/>
			<g>
				
					<line fill="none" stroke="#87868A" stroke-width="0.7" stroke-miterlimit="3.8636" x1="4.138" y1="1079.156" x2="654.237" y2="1079.156"/>
				<path fill="none" stroke="#87868A" stroke-width="0.4" stroke-miterlimit="3.8636" stroke-dasharray="1.8,1.8" d="
					M592.903,1061.218"/>
				<path fill="none" stroke="#87868A" stroke-width="0.4" stroke-miterlimit="3.8636" stroke-dasharray="1.8,1.8" d="
					M-0.077,1059.9"/>
				
					<line fill="none" stroke="#87868A" stroke-width="0.7" stroke-miterlimit="3.8636" x1="4.082" y1="1040.65" x2="654.237" y2="1040.65"/>
				<path fill="none" stroke="#87868A" stroke-width="0.4" stroke-miterlimit="3.8636" d="M654.237,1021.396"/>
				<path fill="none" stroke="#87868A" stroke-width="0.4" stroke-miterlimit="3.8636" stroke-dasharray="1.8,1.8" d="
					M-0.077,1021.396"/>
				
					<line fill="none" stroke="#87868A" stroke-width="0.7" stroke-miterlimit="3.8636" x1="4.138" y1="1002.144" x2="654.237" y2="1002.144"/>
				<path fill="none" stroke="#87868A" stroke-width="0.4" stroke-miterlimit="3.8636" d="M654.237,982.89"/>
				<path fill="none" stroke="#87868A" stroke-width="0.4" stroke-miterlimit="3.8636" stroke-dasharray="1.8,1.8" d="
					M-0.077,982.89"/>
				
					<line fill="none" stroke="#87868A" stroke-width="0.7" stroke-miterlimit="3.8636" x1="4.138" y1="963.635" x2="654.237" y2="963.635"/>
				<path fill="none" stroke="#87868A" stroke-width="0.7" stroke-miterlimit="3.8636" d="M654.237,944.383"/>
				<path fill="none" stroke="#87868A" stroke-width="0.7" stroke-miterlimit="3.8636" d="M-0.077,944.383"/>
			</g>
			<g>
				
					<line fill="none" stroke="#87868A" stroke-width="0.7" stroke-miterlimit="3.8636" x1="-0.077" y1="2187.747" x2="654.237" y2="2187.747"/>
				<path fill="none" stroke="#87868A" stroke-width="0.4" stroke-miterlimit="3.8636" stroke-dasharray="1.8,1.8" d="
					M654.237,2135.645"/>
				
					<line fill="none" stroke="#87868A" stroke-width="0.7" stroke-miterlimit="3.8636" x1="4.082" y1="2083.563" x2="654.237" y2="2083.563"/>
				<path fill="none" stroke="#87868A" stroke-width="0.4" stroke-miterlimit="3.8636" stroke-dasharray="1.8,1.8" d="
					M654.237,2031.466"/>
				
					<line fill="none" stroke="#87868A" stroke-width="0.7" stroke-miterlimit="3.8636" x1="4.082" y1="1979.376" x2="654.237" y2="1979.376"/>
				<path fill="none" stroke="#87868A" stroke-width="0.4" stroke-miterlimit="3.8636" stroke-dasharray="1.8,1.8" d="
					M654.237,1927.279"/>
				
					<line fill="none" stroke="#87868A" stroke-width="0.7" stroke-miterlimit="3.8636" x1="4.082" y1="1875.178" x2="654.237" y2="1875.178"/>
				<path fill="none" stroke="#87868A" stroke-width="0.4" stroke-miterlimit="3.8636" stroke-dasharray="1.8,1.8" d="
					M654.237,1823.084"/>
				
					<line fill="none" stroke="#87868A" stroke-width="0.7" stroke-miterlimit="3.8636" x1="4.082" y1="1770.994" x2="654.237" y2="1770.994"/>
				<path fill="none" stroke="#87868A" stroke-width="0.4" stroke-miterlimit="3.8636" d="M654.237,1718.905"/>
				
					<line fill="none" stroke="#87868A" stroke-width="0.7" stroke-miterlimit="3.8636" x1="4.138" y1="1658.263" x2="654.237" y2="1658.263"/>
				<path fill="none" stroke="#87868A" stroke-width="0.7" stroke-miterlimit="3.8636" d="M654.237,1690.863"/>
				<path fill="none" stroke="#87868A" stroke-width="0.7" stroke-miterlimit="3.8636" d="M4.138,1690.863"/>
				<path fill="none" stroke="#87868A" stroke-width="0.4" stroke-miterlimit="3.8636" d="M654.237,1639.01"/>
				
					<line fill="none" stroke="#87868A" stroke-width="0.7" stroke-miterlimit="3.8636" x1="4.082" y1="1619.756" x2="654.237" y2="1619.756"/>
				
					<line fill="none" stroke="#87868A" stroke-width="0.7" stroke-miterlimit="3.8636" stroke-dasharray="4,4" x1="4.138" y1="1696.475" x2="654.237" y2="1696.475"/>
				
					<line fill="none" stroke="#87868A" stroke-width="0.7" stroke-miterlimit="3.8636" stroke-dasharray="4,4" x1="4.11" y1="1718.905" x2="654.209" y2="1718.905"/>
				<path fill="none" stroke="#87868A" stroke-width="0.7" stroke-miterlimit="3.8636" d="M654.237,1657.967"/>
				<path fill="none" stroke="#87868A" stroke-width="0.7" stroke-miterlimit="3.8636" d="M4.082,1657.967"/>
				<path fill="none" stroke="#87868A" stroke-width="0.4" stroke-miterlimit="3.8636" d="M654.237,1600.506"/>
				
					<line fill="none" stroke="#87868A" stroke-width="0.7" stroke-miterlimit="3.8636" x1="4.082" y1="1581.25" x2="654.237" y2="1581.25"/>
				<path fill="none" stroke="#87868A" stroke-width="0.4" stroke-miterlimit="3.8636" d="M654.237,1561.997"/>
				
					<line fill="none" stroke="#87868A" stroke-width="0.7" stroke-miterlimit="3.8636" x1="4.082" y1="1542.745" x2="654.237" y2="1542.745"/>
				<path fill="none" stroke="#87868A" stroke-width="0.4" stroke-miterlimit="3.8636" d="M654.237,1523.491"/>
				
					<line fill="none" stroke="#87868A" stroke-width="0.7" stroke-miterlimit="3.8636" x1="4.082" y1="1504.235" x2="654.237" y2="1504.235"/>
				<path fill="none" stroke="#87868A" stroke-width="0.4" stroke-miterlimit="3.8636" d="M654.237,1484.985"/>
			</g>
		</g>
		<g>
			<path fill="none" stroke="#87868A" stroke-width="0.7" stroke-miterlimit="3.8636" d="M654.237,781.407"/>
			<path fill="none" stroke="#87868A" stroke-width="0.7" stroke-miterlimit="3.8636" d="M26.695,781.407"/>
			<path fill="none" stroke="#87868A" stroke-width="0.7" stroke-miterlimit="3.8636" d="M654.237,776.211"/>
			<path fill="none" stroke="#87868A" stroke-width="0.7" stroke-miterlimit="3.8636" d="M6.19,776.211"/>
			<path fill="none" stroke="#87868A" stroke-width="0.7" stroke-miterlimit="3.8636" d="M654.237,771.014"/>
			<path fill="none" stroke="#87868A" stroke-width="0.7" stroke-miterlimit="3.8636" d="M6.103,771.014"/>
			<path fill="none" stroke="#87868A" stroke-width="0.7" stroke-miterlimit="3.8636" d="M654.237,765.818"/>
			<path fill="none" stroke="#87868A" stroke-width="0.7" stroke-miterlimit="3.8636" d="M6.103,765.818"/>
			<path fill="none" stroke="#87868A" stroke-width="0.7" stroke-miterlimit="3.8636" d="M654.237,760.623"/>
			<path fill="none" stroke="#87868A" stroke-width="0.7" stroke-miterlimit="3.8636" d="M6.103,760.623"/>
			<path fill="none" stroke="#87868A" stroke-width="0.7" stroke-miterlimit="3.8636" d="M654.237,755.425"/>
			<path fill="none" stroke="#87868A" stroke-width="0.7" stroke-miterlimit="3.8636" d="M6.103,755.425"/>
			<path fill="none" stroke="#87868A" stroke-width="0.7" stroke-miterlimit="3.8636" d="M654.237,750.23"/>
			<path fill="none" stroke="#87868A" stroke-width="0.7" stroke-miterlimit="3.8636" d="M6.103,750.23"/>
			<path fill="none" stroke="#87868A" stroke-width="0.4" stroke-miterlimit="3.8636" d="M654.237,745.034"/>
			<path fill="none" stroke="#87868A" stroke-width="0.4" stroke-miterlimit="3.8636" stroke-dasharray="1.8,1.8" d="
				M654.237,739.836"/>
			<path fill="none" stroke="#87868A" stroke-width="0.4" stroke-miterlimit="3.8636" stroke-dasharray="1.8,1.8" d="
				M654.237,734.641"/>
			<path fill="none" stroke="#87868A" stroke-width="0.4" stroke-miterlimit="3.8636" stroke-dasharray="1.8,1.8" d="
				M654.237,729.444"/>
			<path fill="none" stroke="#87868A" stroke-width="0.4" stroke-miterlimit="3.8636" stroke-dasharray="1.8,1.8" d="
				M654.237,724.247"/>
			<path fill="none" stroke="#87868A" stroke-width="0.4" stroke-miterlimit="3.8636" stroke-dasharray="1.8,1.8" d="
				M654.237,719.051"/>
			<path fill="none" stroke="#87868A" stroke-width="0.4" stroke-miterlimit="3.8636" stroke-dasharray="1.8,1.8" d="
				M654.237,713.855"/>
			<path fill="none" stroke="#87868A" stroke-width="0.4" stroke-miterlimit="3.8636" stroke-dasharray="1.8,1.8" d="
				M654.237,708.659"/>
			<g>
				<path fill="none" stroke="#87868A" stroke-width="0.4" stroke-miterlimit="3.8636" stroke-dasharray="1.8,1.8" d="
					M654.237,703.462"/>
				<path fill="none" stroke="#87868A" stroke-width="0.4" stroke-miterlimit="3.8636" stroke-dasharray="1.8,1.8" d="
					M-0.077,703.462"/>
				
					<line fill="none" stroke="#87868A" stroke-width="0.7" stroke-miterlimit="3.8636" x1="6.103" y1="698.266" x2="654.237" y2="698.266"/>
				<path fill="none" stroke="#87868A" stroke-width="0.4" stroke-miterlimit="3.8636" stroke-dasharray="1.8,1.8" d="
					M654.237,693.069"/>
				<path fill="none" stroke="#87868A" stroke-width="0.4" stroke-miterlimit="3.8636" stroke-dasharray="1.8,1.8" d="
					M654.237,687.873"/>
				<path fill="none" stroke="#87868A" stroke-width="0.4" stroke-miterlimit="3.8636" stroke-dasharray="1.8,1.8" d="
					M654.237,682.677"/>
				<path fill="none" stroke="#87868A" stroke-width="0.4" stroke-miterlimit="3.8636" d="M654.237,677.48"/>
				<path fill="none" stroke="#87868A" stroke-width="0.4" stroke-miterlimit="3.8636" d="M654.237,672.284"/>
				<path fill="none" stroke="#87868A" stroke-width="0.4" stroke-miterlimit="3.8636" d="M654.237,667.088"/>
				<path fill="none" stroke="#87868A" stroke-width="0.4" stroke-miterlimit="3.8636" d="M654.237,661.892"/>
				<path fill="none" stroke="#87868A" stroke-width="0.4" stroke-miterlimit="3.8636" d="M654.237,656.696"/>
				<path fill="none" stroke="#87868A" stroke-width="0.4" stroke-miterlimit="3.8636" d="M654.237,651.499"/>
				<path fill="none" stroke="#87868A" stroke-width="0.4" stroke-miterlimit="3.8636" stroke-dasharray="1.8,1.8" d="
					M-0.077,651.499"/>
				<path fill="none" stroke="#87868A" stroke-width="0.4" stroke-miterlimit="3.8636" d="M654.237,646.303"/>
				<path fill="none" stroke="#87868A" stroke-width="0.4" stroke-miterlimit="3.8636" d="M654.237,641.107"/>
				<path fill="none" stroke="#87868A" stroke-width="0.4" stroke-miterlimit="3.8636" stroke-dasharray="1.8,1.8" d="
					M-0.077,641.107"/>
				<path fill="none" stroke="#87868A" stroke-width="0.4" stroke-miterlimit="3.8636" d="M654.237,635.91"/>
				<path fill="none" stroke="#87868A" stroke-width="0.4" stroke-miterlimit="3.8636" stroke-dasharray="1.8,1.8" d="
					M-0.077,635.91"/>
				<path fill="none" stroke="#87868A" stroke-width="0.4" stroke-miterlimit="3.8636" d="M654.237,630.714"/>
				<path fill="none" stroke="#87868A" stroke-width="0.4" stroke-miterlimit="3.8636" d="M654.237,625.518"/>
				<path fill="none" stroke="#87868A" stroke-width="0.4" stroke-miterlimit="3.8636" d="M654.237,620.322"/>
				<path fill="none" stroke="#87868A" stroke-width="0.4" stroke-miterlimit="3.8636" d="M654.237,615.125"/>
				<path fill="none" stroke="#87868A" stroke-width="0.4" stroke-miterlimit="3.8636" d="M654.237,609.929"/>
				<path fill="none" stroke="#87868A" stroke-width="0.4" stroke-miterlimit="3.8636" d="M654.237,604.732"/>
			</g>
			<g>
				<path fill="none" stroke="#87868A" stroke-width="0.4" stroke-miterlimit="3.8636" d="M654.237,495.2"/>
				<path fill="none" stroke="#87868A" stroke-width="0.4" stroke-miterlimit="3.8636" stroke-dasharray="1.8,1.8" d="M-0.077,495.2
					"/>
				
					<line fill="none" stroke="#87868A" stroke-width="0.7" stroke-miterlimit="3.8636" x1="6.103" y1="490.003" x2="654.237" y2="490.003"/>
				<path fill="none" stroke="#87868A" stroke-width="0.4" stroke-miterlimit="3.8636" d="M654.237,484.807"/>
				<path fill="none" stroke="#87868A" stroke-width="0.4" stroke-miterlimit="3.8636" stroke-dasharray="1.8,1.8" d="
					M-0.077,484.807"/>
				<path fill="none" stroke="#87868A" stroke-width="0.4" stroke-miterlimit="3.8636" d="M654.237,479.611"/>
				<path fill="none" stroke="#87868A" stroke-width="0.4" stroke-miterlimit="3.8636" stroke-dasharray="1.8,1.8" d="
					M-0.077,479.611"/>
				<path fill="none" stroke="#87868A" stroke-width="0.4" stroke-miterlimit="3.8636" d="M654.237,474.414"/>
				<path fill="none" stroke="#87868A" stroke-width="0.4" stroke-miterlimit="3.8636" stroke-dasharray="1.8,1.8" d="
					M-0.077,474.414"/>
				<path fill="none" stroke="#87868A" stroke-width="0.4" stroke-miterlimit="3.8636" d="M654.237,469.218"/>
				<path fill="none" stroke="#87868A" stroke-width="0.4" stroke-miterlimit="3.8636" stroke-dasharray="1.8,1.8" d="
					M-0.077,469.218"/>
				<path fill="none" stroke="#87868A" stroke-width="0.4" stroke-miterlimit="3.8636" d="M654.237,464.021"/>
				<path fill="none" stroke="#87868A" stroke-width="0.4" stroke-miterlimit="3.8636" d="M654.237,458.825"/>
				<path fill="none" stroke="#87868A" stroke-width="0.4" stroke-miterlimit="3.8636" d="M654.237,453.629"/>
				<path fill="none" stroke="#87868A" stroke-width="0.4" stroke-miterlimit="3.8636" d="M654.237,448.434"/>
				<path fill="none" stroke="#87868A" stroke-width="0.4" stroke-miterlimit="3.8636" d="M654.237,443.236"/>
				<path fill="none" stroke="#87868A" stroke-width="0.4" stroke-miterlimit="3.8636" d="M654.237,438.04"/>
				<path fill="none" stroke="#87868A" stroke-width="0.4" stroke-miterlimit="3.8636" d="M654.237,432.844"/>
				<path fill="none" stroke="#87868A" stroke-width="0.4" stroke-miterlimit="3.8636" d="M654.237,427.648"/>
				<path fill="none" stroke="#87868A" stroke-width="0.4" stroke-miterlimit="3.8636" d="M654.237,422.451"/>
				<path fill="none" stroke="#87868A" stroke-width="0.4" stroke-miterlimit="3.8636" d="M654.237,417.256"/>
				<path fill="none" stroke="#87868A" stroke-width="0.4" stroke-miterlimit="3.8636" d="M654.237,412.059"/>
				<path fill="none" stroke="#87868A" stroke-width="0.4" stroke-miterlimit="3.8636" d="M654.237,406.863"/>
				<path fill="none" stroke="#87868A" stroke-width="0.4" stroke-miterlimit="3.8636" d="M654.237,401.666"/>
				<path fill="none" stroke="#87868A" stroke-width="0.4" stroke-miterlimit="3.8636" d="M654.237,396.47"/>
				<path fill="none" stroke="#87868A" stroke-width="0.4" stroke-miterlimit="3.8636" stroke-dasharray="1.8,1.8" d="
					M-0.077,396.47"/>
			</g>
			<g>
				<path fill="none" stroke="#87868A" stroke-width="0.4" stroke-miterlimit="3.8636" d="M654.237,287.51"/>
				<path fill="none" stroke="#87868A" stroke-width="0.4" stroke-miterlimit="3.8636" stroke-dasharray="1.8,1.8" d="
					M-0.077,287.51"/>
				
					<line fill="none" stroke="#87868A" stroke-width="0.7" stroke-miterlimit="3.8636" x1="6.103" y1="282.313" x2="654.237" y2="282.313"/>
				<path fill="none" stroke="#87868A" stroke-width="0.4" stroke-miterlimit="3.8636" d="M654.237,277.118"/>
				<path fill="none" stroke="#87868A" stroke-width="0.4" stroke-miterlimit="3.8636" stroke-dasharray="1.8,1.8" d="
					M-0.077,277.118"/>
				<path fill="none" stroke="#87868A" stroke-width="0.4" stroke-miterlimit="3.8636" d="M654.237,271.921"/>
				<path fill="none" stroke="#87868A" stroke-width="0.4" stroke-miterlimit="3.8636" stroke-dasharray="1.8,1.8" d="
					M-0.077,271.921"/>
				<path fill="none" stroke="#87868A" stroke-width="0.4" stroke-miterlimit="3.8636" d="M654.237,266.724"/>
				<path fill="none" stroke="#87868A" stroke-width="0.4" stroke-miterlimit="3.8636" stroke-dasharray="1.8,1.8" d="
					M-0.077,266.724"/>
				<path fill="none" stroke="#87868A" stroke-width="0.4" stroke-miterlimit="3.8636" d="M654.237,261.529"/>
				<path fill="none" stroke="#87868A" stroke-width="0.4" stroke-miterlimit="3.8636" stroke-dasharray="1.8,1.8" d="
					M-0.077,261.529"/>
				<path fill="none" stroke="#87868A" stroke-width="0.4" stroke-miterlimit="3.8636" d="M654.237,256.332"/>
				<path fill="none" stroke="#87868A" stroke-width="0.4" stroke-miterlimit="3.8636" stroke-dasharray="1.8,1.8" d="
					M-0.077,256.332"/>
				<path fill="none" stroke="#87868A" stroke-width="0.4" stroke-miterlimit="3.8636" d="M654.237,251.135"/>
				<path fill="none" stroke="#87868A" stroke-width="0.4" stroke-miterlimit="3.8636" d="M654.237,245.94"/>
				<path fill="none" stroke="#87868A" stroke-width="0.4" stroke-miterlimit="3.8636" d="M654.237,240.744"/>
				<path fill="none" stroke="#87868A" stroke-width="0.4" stroke-miterlimit="3.8636" d="M654.237,235.546"/>
				<path fill="none" stroke="#87868A" stroke-width="0.4" stroke-miterlimit="3.8636" d="M654.237,230.351"/>
				<path fill="none" stroke="#87868A" stroke-width="0.4" stroke-miterlimit="3.8636" d="M654.237,225.155"/>
				<path fill="none" stroke="#87868A" stroke-width="0.4" stroke-miterlimit="3.8636" d="M654.237,219.958"/>
				<path fill="none" stroke="#87868A" stroke-width="0.4" stroke-miterlimit="3.8636" d="M654.237,214.762"/>
				<path fill="none" stroke="#87868A" stroke-width="0.4" stroke-miterlimit="3.8636" d="M654.237,209.565"/>
				<path fill="none" stroke="#87868A" stroke-width="0.4" stroke-miterlimit="3.8636" d="M654.237,204.369"/>
				<path fill="none" stroke="#87868A" stroke-width="0.4" stroke-miterlimit="3.8636" d="M654.237,199.173"/>
				<path fill="none" stroke="#87868A" stroke-width="0.4" stroke-miterlimit="3.8636" d="M654.237,193.976"/>
				<path fill="none" stroke="#87868A" stroke-width="0.4" stroke-miterlimit="3.8636" d="M654.237,188.78"/>
				<path fill="none" stroke="#87868A" stroke-width="0.4" stroke-miterlimit="3.8636" stroke-dasharray="1.8,1.8" d="
					M-0.077,188.78"/>
				<path fill="none" stroke="#87868A" stroke-width="0.4" stroke-miterlimit="3.8636" d="M654.237,183.544"/>
				<path fill="none" stroke="#87868A" stroke-width="0.4" stroke-miterlimit="3.8636" stroke-dasharray="1.8,1.8" d="
					M-0.077,183.544"/>
				
					<line fill="none" stroke="#87868A" stroke-width="0.7" stroke-miterlimit="3.8636" x1="6.103" y1="178.341" x2="654.237" y2="178.341"/>
			</g>
			<g>
				<path fill="none" stroke="#87868A" stroke-width="0.4" stroke-miterlimit="3.8636" d="M654.237,173.065"/>
				<path fill="none" stroke="#87868A" stroke-width="0.4" stroke-miterlimit="3.8636" stroke-dasharray="1.8,1.8" d="
					M-0.077,173.065"/>
				<path fill="none" stroke="#87868A" stroke-width="0.4" stroke-miterlimit="3.8636" d="M654.237,167.868"/>
				<path fill="none" stroke="#87868A" stroke-width="0.4" stroke-miterlimit="3.8636" stroke-dasharray="1.8,1.8" d="
					M-0.077,167.868"/>
				<path fill="none" stroke="#87868A" stroke-width="0.4" stroke-miterlimit="3.8636" d="M654.237,162.671"/>
				<path fill="none" stroke="#87868A" stroke-width="0.4" stroke-miterlimit="3.8636" stroke-dasharray="1.8,1.8" d="
					M-0.077,162.671"/>
				<path fill="none" stroke="#87868A" stroke-width="0.4" stroke-miterlimit="3.8636" d="M654.237,157.476"/>
				<path fill="none" stroke="#87868A" stroke-width="0.4" stroke-miterlimit="3.8636" stroke-dasharray="1.8,1.8" d="
					M-0.077,157.476"/>
				<path fill="none" stroke="#87868A" stroke-width="0.4" stroke-miterlimit="3.8636" d="M654.237,152.279"/>
				<path fill="none" stroke="#87868A" stroke-width="0.4" stroke-miterlimit="3.8636" stroke-dasharray="1.8,1.8" d="
					M-0.077,152.279"/>
				<path fill="none" stroke="#87868A" stroke-width="0.4" stroke-miterlimit="3.8636" d="M654.237,147.082"/>
				<path fill="none" stroke="#87868A" stroke-width="0.4" stroke-miterlimit="3.8636" stroke-dasharray="1.8,1.8" d="
					M-0.077,147.082"/>
				<path fill="none" stroke="#87868A" stroke-width="0.4" stroke-miterlimit="3.8636" d="M654.237,141.887"/>
				<path fill="none" stroke="#87868A" stroke-width="0.4" stroke-miterlimit="3.8636" stroke-dasharray="1.8,1.8" d="
					M-0.077,141.887"/>
				<path fill="none" stroke="#87868A" stroke-width="0.4" stroke-miterlimit="3.8636" d="M654.237,136.691"/>
				<path fill="none" stroke="#87868A" stroke-width="0.4" stroke-miterlimit="3.8636" stroke-dasharray="1.8,1.8" d="
					M-0.077,136.691"/>
				<path fill="none" stroke="#87868A" stroke-width="0.4" stroke-miterlimit="3.8636" d="M654.237,131.493"/>
				<path fill="none" stroke="#87868A" stroke-width="0.4" stroke-miterlimit="3.8636" stroke-dasharray="1.8,1.8" d="
					M-0.077,131.493"/>
			</g>
			<path fill="none" stroke="#87868A" stroke-width="0.4" stroke-miterlimit="3.8636" d="M654.237,599.536"/>
			<path fill="none" stroke="#87868A" stroke-width="0.4" stroke-miterlimit="3.8636" stroke-dasharray="1.8,1.8" d="
				M-0.077,599.536"/>
			
				<line fill="none" stroke="#87868A" stroke-width="0.7" stroke-miterlimit="3.8636" x1="8.505" y1="594.339" x2="654.237" y2="594.339"/>
			<path fill="none" stroke="#87868A" stroke-width="0.4" stroke-miterlimit="3.8636" d="M654.237,589.143"/>
			<path fill="none" stroke="#87868A" stroke-width="0.4" stroke-miterlimit="3.8636" stroke-dasharray="1.8,1.8" d="
				M-0.077,589.143"/>
			<path fill="none" stroke="#87868A" stroke-width="0.4" stroke-miterlimit="3.8636" d="M654.237,583.947"/>
			<path fill="none" stroke="#87868A" stroke-width="0.4" stroke-miterlimit="3.8636" d="M654.237,578.751"/>
			<path fill="none" stroke="#87868A" stroke-width="0.4" stroke-miterlimit="3.8636" d="M654.237,573.554"/>
			<path fill="none" stroke="#87868A" stroke-width="0.4" stroke-miterlimit="3.8636" d="M654.237,568.358"/>
			<path fill="none" stroke="#87868A" stroke-width="0.4" stroke-miterlimit="3.8636" d="M654.237,563.162"/>
			<path fill="none" stroke="#87868A" stroke-width="0.4" stroke-miterlimit="3.8636" d="M654.237,557.965"/>
			<path fill="none" stroke="#87868A" stroke-width="0.4" stroke-miterlimit="3.8636" d="M654.237,552.77"/>
			<path fill="none" stroke="#87868A" stroke-width="0.4" stroke-miterlimit="3.8636" d="M654.237,547.573"/>
			<path fill="none" stroke="#87868A" stroke-width="0.4" stroke-miterlimit="3.8636" stroke-dasharray="1.8,1.8" d="
				M-0.077,547.573"/>
			<path fill="none" stroke="#87868A" stroke-width="0.4" stroke-miterlimit="3.8636" d="M654.237,542.376"/>
			<path fill="none" stroke="#87868A" stroke-width="0.4" stroke-miterlimit="3.8636" d="M654.237,537.18"/>
			<path fill="none" stroke="#87868A" stroke-width="0.4" stroke-miterlimit="3.8636" d="M654.237,531.985"/>
			<path fill="none" stroke="#87868A" stroke-width="0.4" stroke-miterlimit="3.8636" d="M654.237,526.788"/>
			<path fill="none" stroke="#87868A" stroke-width="0.4" stroke-miterlimit="3.8636" d="M654.237,521.591"/>
			<path fill="none" stroke="#87868A" stroke-width="0.4" stroke-miterlimit="3.8636" d="M654.237,516.396"/>
			<path fill="none" stroke="#87868A" stroke-width="0.4" stroke-miterlimit="3.8636" d="M654.237,511.199"/>
			<path fill="none" stroke="#87868A" stroke-width="0.4" stroke-miterlimit="3.8636" d="M654.237,506.002"/>
			<path fill="none" stroke="#87868A" stroke-width="0.4" stroke-miterlimit="3.8636" stroke-dasharray="1.8,1.8" d="
				M-0.077,506.002"/>
			<path fill="none" stroke="#87868A" stroke-width="0.4" stroke-miterlimit="3.8636" d="M654.237,500.807"/>
			<path fill="none" stroke="#87868A" stroke-width="0.4" stroke-miterlimit="3.8636" stroke-dasharray="1.8,1.8" d="
				M-0.077,500.807"/>
			<path fill="none" stroke="#87868A" stroke-width="0.4" stroke-miterlimit="3.8636" d="M654.237,391.684"/>
			<path fill="none" stroke="#87868A" stroke-width="0.4" stroke-miterlimit="3.8636" stroke-dasharray="1.8,1.8" d="
				M-0.077,391.684"/>
			
				<line fill="none" stroke="#87868A" stroke-width="0.7" stroke-miterlimit="3.8636" x1="6.103" y1="386.488" x2="654.237" y2="386.488"/>
			
				<line fill="none" stroke="#87868A" stroke-width="0.7" stroke-miterlimit="3.8636" x1="6.103" y1="646.316" x2="654.237" y2="646.316"/>
			
				<line fill="none" stroke="#87868A" stroke-width="0.7" stroke-miterlimit="3.8636" x1="6.103" y1="438.053" x2="654.237" y2="438.053"/>
			
				<line fill="none" stroke="#87868A" stroke-width="0.7" stroke-miterlimit="3.8636" x1="6.103" y1="230.363" x2="654.237" y2="230.363"/>
			<path fill="none" stroke="#87868A" stroke-width="0.7" stroke-miterlimit="3.8636" d="M654.237,126.391"/>
			<path fill="none" stroke="#87868A" stroke-width="0.7" stroke-miterlimit="3.8636" d="M4.082,126.391"/>
			
				<line fill="none" stroke="#87868A" stroke-width="0.7" stroke-miterlimit="3.8636" x1="6.103" y1="542.389" x2="654.237" y2="542.389"/>
			
				<line fill="none" stroke="#87868A" stroke-width="0.7" stroke-miterlimit="3.8636" x1="6.103" y1="334.537" x2="654.237" y2="334.537"/>
			<path fill="none" stroke="#87868A" stroke-width="0.4" stroke-miterlimit="3.8636" d="M654.237,381.291"/>
			<path fill="none" stroke="#87868A" stroke-width="0.4" stroke-miterlimit="3.8636" stroke-dasharray="1.8,1.8" d="
				M-0.077,381.291"/>
			<path fill="none" stroke="#87868A" stroke-width="0.4" stroke-miterlimit="3.8636" d="M654.237,376.095"/>
			<path fill="none" stroke="#87868A" stroke-width="0.4" stroke-miterlimit="3.8636" stroke-dasharray="1.8,1.8" d="
				M-0.077,376.095"/>
			<path fill="none" stroke="#87868A" stroke-width="0.4" stroke-miterlimit="3.8636" d="M654.237,370.898"/>
			<path fill="none" stroke="#87868A" stroke-width="0.4" stroke-miterlimit="3.8636" stroke-dasharray="1.8,1.8" d="
				M-0.077,370.898"/>
			<path fill="none" stroke="#87868A" stroke-width="0.4" stroke-miterlimit="3.8636" d="M654.237,365.702"/>
			<path fill="none" stroke="#87868A" stroke-width="0.4" stroke-miterlimit="3.8636" stroke-dasharray="1.8,1.8" d="
				M-0.077,365.702"/>
			<path fill="none" stroke="#87868A" stroke-width="0.4" stroke-miterlimit="3.8636" d="M654.237,360.505"/>
			<path fill="none" stroke="#87868A" stroke-width="0.4" stroke-miterlimit="3.8636" stroke-dasharray="1.8,1.8" d="
				M-0.077,360.505"/>
			<path fill="none" stroke="#87868A" stroke-width="0.4" stroke-miterlimit="3.8636" d="M654.237,355.309"/>
			<path fill="none" stroke="#87868A" stroke-width="0.4" stroke-miterlimit="3.8636" stroke-dasharray="1.8,1.8" d="
				M-0.077,355.309"/>
			<path fill="none" stroke="#87868A" stroke-width="0.4" stroke-miterlimit="3.8636" d="M654.237,350.113"/>
			<path fill="none" stroke="#87868A" stroke-width="0.4" stroke-miterlimit="3.8636" stroke-dasharray="1.8,1.8" d="
				M-0.077,350.113"/>
			<path fill="none" stroke="#87868A" stroke-width="0.4" stroke-miterlimit="3.8636" d="M654.237,344.917"/>
			<path fill="none" stroke="#87868A" stroke-width="0.4" stroke-miterlimit="3.8636" stroke-dasharray="1.8,1.8" d="
				M-0.077,344.917"/>
			<path fill="none" stroke="#87868A" stroke-width="0.4" stroke-miterlimit="3.8636" d="M654.237,339.72"/>
			<path fill="none" stroke="#87868A" stroke-width="0.4" stroke-miterlimit="3.8636" stroke-dasharray="1.8,1.8" d="M-0.077,339.72
				"/>
			<path fill="none" stroke="#87868A" stroke-width="0.4" stroke-miterlimit="3.8636" d="M654.237,334.524"/>
			<path fill="none" stroke="#87868A" stroke-width="0.4" stroke-miterlimit="3.8636" stroke-dasharray="1.8,1.8" d="
				M-0.077,334.524"/>
			<path fill="none" stroke="#87868A" stroke-width="0.4" stroke-miterlimit="3.8636" d="M654.237,329.328"/>
			<path fill="none" stroke="#87868A" stroke-width="0.4" stroke-miterlimit="3.8636" stroke-dasharray="1.8,1.8" d="
				M-0.077,329.328"/>
			<path fill="none" stroke="#87868A" stroke-width="0.4" stroke-miterlimit="3.8636" d="M654.237,324.131"/>
			<path fill="none" stroke="#87868A" stroke-width="0.4" stroke-miterlimit="3.8636" stroke-dasharray="1.8,1.8" d="
				M-0.077,324.131"/>
			<path fill="none" stroke="#87868A" stroke-width="0.4" stroke-miterlimit="3.8636" d="M654.237,318.936"/>
			<path fill="none" stroke="#87868A" stroke-width="0.4" stroke-miterlimit="3.8636" d="M654.237,313.738"/>
			<path fill="none" stroke="#87868A" stroke-width="0.4" stroke-miterlimit="3.8636" d="M654.237,308.543"/>
			<path fill="none" stroke="#87868A" stroke-width="0.4" stroke-miterlimit="3.8636" d="M654.237,303.347"/>
			<path fill="none" stroke="#87868A" stroke-width="0.4" stroke-miterlimit="3.8636" d="M654.237,298.15"/>
			<path fill="none" stroke="#87868A" stroke-width="0.4" stroke-miterlimit="3.8636" stroke-dasharray="1.8,1.8" d="M-0.077,298.15
				"/>
			<path fill="none" stroke="#87868A" stroke-width="0.4" stroke-miterlimit="3.8636" d="M654.237,292.954"/>
			<path fill="none" stroke="#87868A" stroke-width="0.4" stroke-miterlimit="3.8636" stroke-dasharray="1.8,1.8" d="
				M-0.077,292.954"/>
		</g>
		<path fill="none" stroke="#87868A" stroke-width="0.7" stroke-miterlimit="3.8636" d="M654.237,957.273"/>
		<path fill="none" stroke="#87868A" stroke-width="0.7" stroke-miterlimit="3.8636" d="M654.237,785.369"/>
	</g>
	
		<line fill="none" stroke="#87868A" stroke-width="0.7" stroke-miterlimit="3.8636" x1="6.433" y1="802.193" x2="654.567" y2="802.193"/>
	
		<line fill="none" stroke="#87868A" stroke-width="0.7" stroke-miterlimit="3.8636" x1="6.433" y1="750.243" x2="654.567" y2="750.243"/>
	
		<line fill="none" stroke="#87868A" stroke-width="0.7" stroke-miterlimit="3.8636" x1="3.433" y1="802.219" x2="651.567" y2="802.219"/>
	<g>
		<g>
			
				<text transform="matrix(1 0 0 1 4.0823 997.7361)" display="none" fill="#B1B0B1" font-family="'OpenSans-Regular'" font-size="15px">220</text>
		</g>
		<g>
			
				<text transform="matrix(1 0 0 1 6.1902 919.5675)" display="none" fill="#B1B0B1" font-family="'OpenSans-Regular'" font-size="15px">240</text>
		</g>
		<g>
			
				<text transform="matrix(1 0 0 1 6.1034 167.8683)" display="none" fill="#B1B0B1" font-family="'OpenSans-Regular'" font-size="15px">1 billón de €</text>
		</g>
		<g>
			
				<text transform="matrix(1 0 0 1 16.5876 126.3907)" display="none" fill="#B1B0B1" font-family="'OpenSans-Regular'" font-size="17px">ESTADOS UNIDOS</text>
		</g>
		<g>
			
				<text transform="matrix(1 0 0 1 16.5877 99.1065)" display="none" fill="#B1B0B1" font-family="'OpenSans-Regular'" font-size="17px">MERCADOS EN LOS QUE COTIZAN</text>
		</g>
		<g>
			
				<text transform="matrix(1 0 0 1 228.0841 126.3905)" display="none" fill="#B1B0B1" font-family="'OpenSans-Regular'" font-size="17px">EUROPA</text>
		</g>
		<g>
			
				<text transform="matrix(1 0 0 1 370.3042 126.3907)" display="none" fill="#B1B0B1" font-family="'OpenSans-Regular'" font-size="17px">JAPÓN</text>
		</g>
		<g>
			
				<text transform="matrix(1 0 0 1 501.137 126.3909)" display="none" fill="#B1B0B1" font-family="'OpenSans-Regular'" font-size="17px">ESPAÑOLAS</text>
		</g>
		<g>
			<g>
				
					<text transform="matrix(1 0 0 1 6.1032 484.8073)" display="none" fill="#B1B0B1" font-family="'OpenSans-Regular'" font-size="11.8918px">700</text>
			</g>
			<g>
				
					<text transform="matrix(1 0 0 1 4.0821 589.1432)" display="none" fill="#B1B0B1" font-family="'OpenSans-Regular'" font-size="15px">600</text>
			</g>
			<g>
				
					<text transform="matrix(1 0 0 1 4.1378 693.0698)" display="none" fill="#B1B0B1" font-family="'OpenSans-Regular'" font-size="15px">500</text>
			</g>
			<g>
				
					<text transform="matrix(1 0 0 1 6.1032 379.7877)" display="none" fill="#B1B0B1" font-family="'OpenSans-Regular'" font-size="15px">800</text>
			</g>
			<g>
				
					<text transform="matrix(1 0 0 1 6.1032 277.118)" display="none" fill="#B1B0B1" font-family="'OpenSans-Regular'" font-size="15px">900 miles de millones </text>
			</g>
		</g>
		<g>
			
				<text transform="matrix(0.9906 0 0 1 5.8351 796.5464)" display="none" fill="#B1B0B1" font-family="'OpenSans-Regular'" font-size="15px">400</text>
		</g>
		<g>
			
				<text transform="matrix(1 0 0 1 4.0821 1075.6317)" display="none" fill="#B1B0B1" font-family="'OpenSans-Regular'" font-size="15px">200</text>
		</g>
		<g>
			<text transform="matrix(0.9923 0 0 1 3.7053 2183.3513)" fill="#B1B0B1" font-family="'OpenSans-Regular'" font-size="15px">0</text>
		</g>
		<g>
			
				<text transform="matrix(0.9923 0 0 1 4.082 1973.5044)" display="none" fill="#B1B0B1" font-family="'OpenSans-Regular'" font-size="15px">20</text>
		</g>
		<g>
			<text transform="matrix(1 0 0 1 4.082 1750.7522)" fill="#B1B0B1" font-family="'OpenSans-Regular'" font-size="15px">40</text>
		</g>
		<g>
			
				<text transform="matrix(1 0 0 1 4.0821 1616.545)" display="none" fill="#B1B0B1" font-family="'OpenSans-Regular'" font-size="15px">60</text>
		</g>
		<g>
			
				<text transform="matrix(1 0 0 1 4.0821 1539.9972)" display="none" fill="#B1B0B1" font-family="'OpenSans-Regular'" font-size="15px">80</text>
		</g>
		<g>
			
				<text transform="matrix(1 0 0 1 4.1378 1460.4557)" display="none" fill="#B1B0B1" font-family="'OpenSans-Regular'" font-size="15px">100</text>
		</g>
		<g>
			
				<text transform="matrix(1 0 0 1 4.0821 1382.797)" display="none" fill="#B1B0B1" font-family="'OpenSans-Regular'" font-size="15px">120</text>
		</g>
		<g>
			
				<text transform="matrix(1 0 0 1 4.1378 1306.6154)" display="none" fill="#B1B0B1" font-family="'OpenSans-Regular'" font-size="15px">140</text>
		</g>
		<g>
			
				<text transform="matrix(1 0 0 1 4.0821 1229.567)" display="none" fill="#B1B0B1" font-family="'OpenSans-Regular'" font-size="15px">160</text>
		</g>
		<g>
			
				<text transform="matrix(1 0 0 1 4.0823 1151.3643)" display="none" fill="#B1B0B1" font-family="'OpenSans-Regular'" font-size="15px">180</text>
		</g>
	</g>
	<g>
		<path fill="#66BBCE" stroke="#66BBCE" stroke-miterlimit="10" d="M195.426,120.266c0,6.2-5.028,11.227-11.227,11.227
			c-6.199,0-11.227-5.028-11.227-11.227c0-6.199,5.028-11.227,11.227-11.227C190.399,109.039,195.426,114.067,195.426,120.266z"/>
		<path fill="#E8C533" stroke="#E8C533" stroke-miterlimit="10" d="M327.516,120.266c0,6.199-5.028,11.227-11.227,11.227
			s-11.227-5.028-11.227-11.227c0-6.2,5.028-11.227,11.227-11.227S327.516,114.067,327.516,120.266z"/>
		<path fill="#A38283" stroke="#A38283" stroke-width="0.5" stroke-miterlimit="10" d="M453.24,117.696
			c2.23,10.05-9.031,18.52-19.165,10.791c-7.725-10.135,0.744-21.392,10.793-19.163C448.995,110.24,452.325,113.57,453.24,117.696z"
			/>
		<g>
			
		</g>
	</g>
	<path fill="none" stroke="#87868A" stroke-width="0.7" stroke-miterlimit="3.8636" d="M654.237,963.638"/>
	<path fill="none" stroke="#87868A" stroke-width="0.7" stroke-miterlimit="3.8636" d="M4.138,963.638"/>
	
		<line fill="none" stroke="#87868A" stroke-width="0.7" stroke-miterlimit="3.8636" x1="4.138" y1="925.129" x2="654.237" y2="925.129"/>
	<path fill="none" stroke="#87868A" stroke-width="0.7" stroke-miterlimit="3.8636" d="M651.567,698.266"/>
	<path fill="none" stroke="#87868A" stroke-width="0.7" stroke-miterlimit="3.8636" d="M5.835,698.266"/>
	<g>
		<g>
			<path fill="#E8C533" stroke="#E8C533" stroke-miterlimit="10" d="M64.192,2080.518h9.796c0,5.4-4.39,9.783-9.796,9.783
				s-9.791-4.384-9.791-9.783c0-5.409,4.385-9.804,9.791-9.804s9.796,4.395,9.796,9.804l0,0H64.192z"/>
		</g>
		<g>
			<path fill="#A38283" stroke="#A38283" stroke-width="0.5" stroke-miterlimit="10" d="M412.742,1626.708h23.537
				c0,12.998-10.548,23.525-23.537,23.525c-12.983,0-23.527-10.527-23.527-23.525c0-12.995,10.543-23.531,23.527-23.531
				c12.989,0,23.537,10.536,23.537,23.531l0,0H412.742z"/>
		</g>
		<g>
			<path fill="#A38283" stroke="#A38283" stroke-width="0.5" stroke-miterlimit="10" d="M391.337,1868.946h15.231
				c0,8.409-6.823,15.228-15.231,15.228c-8.409,0-15.225-6.819-15.225-15.228c0-8.409,6.816-15.228,15.225-15.228
				c8.408,0,15.231,6.819,15.231,15.228l0,0H391.337z"/>
		</g>
		<g>
			<path fill="#A38283" stroke="#A38283" stroke-width="0.5" stroke-miterlimit="10" d="M584.68,1587.569h25.431
				c0,14.052-11.381,25.438-25.431,25.438c-14.047,0-25.428-11.387-25.428-25.438c0-14.037,11.381-25.427,25.428-25.427
				c14.03,0,25.431,11.398,25.431,25.427H584.68z"/>
		</g>
		<g>
			<path fill="#66BBCE" stroke="#66BBCE" stroke-miterlimit="10" d="M111.388,1142.144h41.689c0,23.02-18.664,41.685-41.689,41.685
				c-23.019,0-41.682-18.665-41.682-41.685c0-23.019,18.664-41.681,41.682-41.681c23.026,0,41.689,18.662,41.689,41.681l0,0H111.388
				z"/>
		</g>
		<g>
			<path fill="#66BBCE" stroke="#66BBCE" stroke-miterlimit="10" d="M228.082,1039.456h44.597c0,24.628-19.97,44.591-44.597,44.591
				s-44.593-19.963-44.593-44.591c0-24.63,19.966-44.6,44.593-44.6s44.597,19.97,44.597,44.6l-0.013-0.778L228.082,1039.456z"/>
		</g>
		<g>
			<path fill="#66BBCE" stroke="#66BBCE" stroke-miterlimit="10" d="M552.703,1193.671h40.087c0,22.143-17.942,40.088-40.087,40.088
				c-22.14,0-40.088-17.945-40.088-40.088c0-22.149,17.948-40.094,40.088-40.094c22.145,0,40.087,17.945,40.087,40.094l0,0H552.703z
				"/>
		</g>
		<g>
			<path fill="#66BBCE" stroke="#66BBCE" stroke-miterlimit="10" d="M349.22,1316.794h36.13c0,19.954-16.177,36.125-36.13,36.125
				c-19.945,0-36.125-16.171-36.125-36.125c0-19.948,16.18-36.125,36.125-36.125c19.928,0,36.13,16.197,36.13,36.125H349.22z"/>
		</g>
		<g>
			<path fill="#66BBCE" stroke="#66BBCE" stroke-miterlimit="10" d="M582.139,1378.725h34.118c0,18.848-15.276,34.128-34.118,34.128
				c-18.842,0-34.116-15.28-34.116-34.128c0-18.833,15.274-34.108,34.116-34.108c18.842,0,34.118,15.274,34.118,34.108l0,0H582.139z
				"/>
		</g>
		<g>
			<path fill="#66BBCE" stroke="#66BBCE" stroke-miterlimit="10" d="M462.538,1395.57h33.375c0,18.427-14.933,33.367-33.375,33.367
				c-18.433,0-33.373-14.94-33.373-33.367c0-18.436,14.94-33.379,33.373-33.379c18.442,0,33.375,14.943,33.375,33.379l0,0H462.538z"
				/>
		</g>
		<g>
			<path fill="#66BBCE" stroke="#66BBCE" stroke-miterlimit="10" d="M610.285,1479.798h30.195c0,16.676-13.519,30.197-30.195,30.197
				c-16.682,0-30.194-13.521-30.194-30.197c0-16.673,13.512-30.203,30.194-30.203c16.676,0,30.195,13.529,30.195,30.203l0,0H610.285
				z"/>
		</g>
		<g>
			<path fill="#66BBCE" stroke="#66BBCE" stroke-miterlimit="10" d="M349.22,1539.997h27.652c0,15.268-12.381,27.645-27.652,27.645
				c-15.265,0-27.646-12.377-27.646-27.645c0-15.271,12.381-27.645,27.646-27.645c15.271,0,27.652,12.374,27.652,27.645l0,0H349.22z
				"/>
		</g>
		<g>
			<path fill="#66BBCE" stroke="#66BBCE" stroke-miterlimit="10" d="M422.09,1495.529h29.436c0,16.258-13.174,29.442-29.436,29.442
				c-16.258,0-29.428-13.184-29.428-29.442c0-16.247,13.169-29.433,29.428-29.433c16.263,0,29.436,13.187,29.436,29.433l0,0H422.09z
				"/>
		</g>
		<g>
			<path fill="#66BBCE" stroke="#66BBCE" stroke-miterlimit="10" d="M533.814,1529.788h28.101c0,15.512-12.577,28.104-28.101,28.104
				c-15.518,0-28.091-12.591-28.091-28.104c0-15.521,12.573-28.089,28.091-28.089c15.524,0,28.101,12.568,28.101,28.089l0,0H533.814
				z"/>
		</g>
		<g>
			<path fill="#66BBCE" stroke="#66BBCE" stroke-miterlimit="10" d="M228.077,1551.35h27.034c0,14.929-12.104,27.032-27.034,27.032
				c-14.923,0-27.019-12.104-27.019-27.032c0-14.929,12.096-27.038,27.019-27.038c14.93,0,27.034,12.109,27.034,27.038l0,0H228.077z
				"/>
		</g>
		<g>
			<path fill="#66BBCE" stroke="#66BBCE" stroke-miterlimit="10" d="M349.223,1823.135h18.128c0,10.016-8.125,18.132-18.128,18.132
				c-10.003,0-18.128-8.117-18.128-18.132c0-10.013,8.125-18.124,18.128-18.124c9.999,0,18.128,8.122,18.128,18.124H349.223z"/>
		</g>
		<g>
			<path fill="#66BBCE" stroke="#66BBCE" stroke-miterlimit="10" d="M268.947,1634.53h22.981c0,12.684-10.292,22.971-22.981,22.971
				c-12.684,0-22.977-10.286-22.977-22.971c0-12.681,10.292-22.982,22.977-22.982c12.689,0,22.981,10.301,22.981,22.982l0,0H268.947
				z"/>
		</g>
		<g>
			<path fill="#66BBCE" stroke="#66BBCE" stroke-miterlimit="10" d="M570.308,1829.344h17.936c0,9.906-8.03,17.936-17.936,17.936
				s-17.941-8.03-17.941-17.936c0-9.917,8.035-17.941,17.941-17.941c9.897,0,17.936,8.036,17.936,17.941H570.308z"/>
		</g>
		<g>
			<path fill="#66BBCE" stroke="#66BBCE" stroke-miterlimit="10" d="M474.436,1863.336h17.308c0,9.551-7.749,17.297-17.308,17.297
				c-9.563,0-17.303-7.746-17.303-17.297c0-9.569,7.74-17.314,17.303-17.314c9.559,0,17.308,7.745,17.308,17.314l0,0H474.436z"/>
		</g>
		<g>
			<path fill="#66BBCE" stroke="#66BBCE" stroke-miterlimit="10" d="M314.396,1868.431h17.23c0,9.508-7.71,17.225-17.23,17.225
				c-9.52,0-17.222-7.717-17.222-17.225c0-9.519,7.702-17.227,17.222-17.227c9.52,0,17.23,7.708,17.23,17.227l0,0H314.396z"/>
		</g>
		<g>
			<path fill="#66BBCE" stroke="#66BBCE" stroke-miterlimit="10" d="M548.936,1879.43h16.784c0,9.265-7.512,16.78-16.784,16.78
				c-9.263,0-16.782-7.515-16.782-16.78c0-9.274,7.519-16.786,16.782-16.786c9.272,0,16.784,7.512,16.784,16.786l0,0H548.936z"/>
		</g>
		<g>
			<path fill="#66BBCE" stroke="#66BBCE" stroke-miterlimit="10" d="M348.501,1919.655h15.425c0,8.528-6.905,15.426-15.425,15.426
				c-8.523,0-15.428-6.899-15.428-15.426c0-8.513,6.905-15.427,15.428-15.427c8.52,0,15.425,6.913,15.425,15.427l0,0H348.501z"/>
		</g>
		<g>
			<path fill="#66BBCE" stroke="#66BBCE" stroke-miterlimit="10" d="M439.84,1896.87h16.08c0,8.886-7.19,16.082-16.08,16.082
				c-8.881,0-16.075-7.196-16.075-16.082c0-8.88,7.194-16.073,16.075-16.073c8.89,0,16.08,7.193,16.08,16.073l0,0H439.84z"/>
		</g>
		<g>
			<path fill="#66BBCE" stroke="#66BBCE" stroke-miterlimit="10" d="M341.157,2021.3h12.648c0,6.981-5.666,12.642-12.648,12.642
				c-6.984,0-12.641-5.66-12.641-12.642c0-6.99,5.657-12.647,12.641-12.647c6.982,0,12.648,5.657,12.648,12.647l0,0H341.157z"/>
		</g>
		<g>
			<path fill="#66BBCE" stroke="#66BBCE" stroke-miterlimit="10" d="M235.216,2075.499h10.324c0,5.698-4.622,10.318-10.324,10.318
				c-5.699,0-10.317-4.619-10.317-10.318c0-5.693,4.618-10.323,10.317-10.323c5.702,0,10.324,4.631,10.324,10.323l0,0H235.216z"/>
		</g>
		<g>
			<path fill="#E8C533" stroke="#E8C533" stroke-miterlimit="10" d="M117.342,1575.363h26.278c0,14.505-11.767,26.277-26.278,26.277
				c-14.503,0-26.273-11.773-26.273-26.277c0-14.51,11.77-26.277,26.273-26.277c14.511,0,26.278,11.767,26.278,26.277l0,0H117.342z"
				/>
		</g>
		<g>
			<path fill="#E8C533" stroke="#E8C533" stroke-miterlimit="10" d="M302.399,1796.631h18.677c0,10.311-8.373,18.667-18.677,18.667
				c-10.308,0-18.675-8.356-18.675-18.667c0-10.323,8.367-18.685,18.675-18.685c10.304,0,18.677,8.371,18.677,18.685H302.399z"/>
		</g>
		<g>
			<path fill="#E8C533" stroke="#E8C533" stroke-miterlimit="10" d="M627.275,1866.05h17.168c0,9.486-7.682,17.178-17.168,17.178
				c-9.479,0-17.164-7.692-17.164-17.178c0-9.478,7.685-17.155,17.164-17.155c9.486,0,17.168,7.677,17.168,17.155l0,0H627.275z"/>
		</g>
		<g>
			<g>
				<path fill="#E8C533" stroke="#E8C533" stroke-miterlimit="10" d="M145.471,1784.803h18.889c0,10.434-8.454,18.885-18.889,18.885
					c-10.43,0-18.887-8.451-18.887-18.885c0-10.437,8.457-18.891,18.887-18.891c10.434,0,18.889,8.454,18.889,18.891l0,0H145.471z"
					/>
			</g>
			<g>
				
			</g>
		</g>
		<g>
			<g>
				<path fill="#E8C533" stroke="#E8C533" stroke-miterlimit="10" d="M423.763,2080.533h9.746c0,5.381-4.356,9.743-9.746,9.743
					c-5.377,0-9.743-4.363-9.743-9.743c0-5.384,4.366-9.747,9.743-9.747c5.39,0,9.746,4.363,9.746,9.747l0,0H423.763z"/>
			</g>
			<g>
				
			</g>
		</g>
		<g>
			<path fill="#E8C533" stroke="#E8C533" stroke-miterlimit="10" d="M575.858,2167.273h5.448c0,3.009-2.436,5.446-5.448,5.446
				c-3.008,0-5.446-2.437-5.446-5.446c0-3.012,2.439-5.448,5.446-5.448c3.012,0,5.448,2.437,5.448,5.448l0,0H575.858z"/>
		</g>
		<g>
			<path fill="#E8C533" stroke="#E8C533" stroke-miterlimit="10" d="M526.955,1930.845h15.262c0,8.423-6.837,15.259-15.262,15.259
				c-8.422,0-15.247-6.836-15.247-15.259c0-8.423,6.824-15.25,15.247-15.25c8.425,0,15.262,6.827,15.262,15.25l0,0H526.955z"/>
		</g>
		<g>
			<path fill="#66BBCE" stroke="#66BBCE" stroke-miterlimit="10" d="M392.662,1046.516h44.349c0,24.492-19.851,44.341-44.349,44.341
				c-24.489,0-44.347-19.85-44.347-44.341c0-24.489,19.858-44.339,44.347-44.339c24.466,0,44.349,19.867,44.349,44.339H392.662z"/>
		</g>
		<g>
			<path fill="#66BBCE" stroke="#66BBCE" stroke-miterlimit="10" d="M568.14,1052.014h44.182c0,24.393-19.779,44.176-44.182,44.176
				c-24.4,0-44.182-19.783-44.182-44.176c0-24.405,19.781-44.188,44.182-44.188c24.374,0,44.182,19.81,44.182,44.188H568.14z"/>
		</g>
		<g>
			<path fill="#66BBCE" stroke="#66BBCE" stroke-miterlimit="10" d="M338.675,1431.688h31.895c0,17.614-14.28,31.901-31.895,31.901
				c-17.608,0-31.882-14.287-31.882-31.901c0-17.611,14.274-31.892,31.882-31.892c17.6,0,31.895,14.299,31.895,31.892H338.675z"/>
		</g>
		<g>
			<path fill="#66BBCE" stroke="#66BBCE" stroke-miterlimit="10" d="M81.905,995.979h45.751c0,25.264-20.482,45.744-45.751,45.744
				c-25.264,0-45.737-20.48-45.737-45.744s20.472-45.742,45.737-45.742c25.269,0,45.751,20.478,45.751,45.742l-0.015-0.803
				L81.905,995.979z"/>
		</g>
		<g>
			<path fill="#E8C533" stroke="#E8C533" stroke-miterlimit="10" d="M526.958,1785.028h18.803c0,11.058-9.541,19.89-20.855,18.694
				c-8.619-0.911-15.612-7.84-16.612-16.449c-1.321-11.369,7.543-21.039,18.664-21.039c10.392,0,18.803,8.426,18.803,18.794l0,0
				H526.958z"/>
		</g>
		<g>
			<path fill="#E8C533" stroke="#E8C533" stroke-miterlimit="10" d="M201.053,1973.506h14.348c0,7.916-6.426,14.342-14.348,14.342
				c-7.917,0-14.339-6.427-14.339-14.342c0-7.927,6.422-14.345,14.339-14.345c7.922,0,14.348,6.418,14.348,14.345l0,0H201.053z"/>
		</g>
		<g>
			<path fill="#E8C533" stroke="#E8C533" stroke-miterlimit="10" d="M162.419,1290.028h37.078c0,20.477-16.604,37.06-37.078,37.06
				c-20.469,0-37.069-16.584-37.069-37.06c0-20.471,16.599-37.072,37.069-37.072c20.454,0,37.078,16.621,37.078,37.072H162.419z"/>
		</g>
		<g>
			<path fill="#E8C533" stroke="#E8C533" stroke-miterlimit="10" d="M522.402,1994.711h13.343c0,7.363-5.971,13.343-13.343,13.343
				c-7.363,0-13.338-5.981-13.338-13.343c0-7.366,5.975-13.338,13.338-13.338c7.373,0,13.343,5.972,13.343,13.338l0,0H522.402z"/>
		</g>
		<g>
			<path fill="#66BBCE" stroke="#66BBCE" stroke-miterlimit="10" d="M312.388,283.802h92.038c0,50.832-41.207,92.039-92.038,92.039
				c-50.827,0-92.031-41.207-92.031-92.039c0-50.827,41.203-92.031,92.031-92.031c50.83,0,92.038,41.203,92.038,92.031l0,0H312.388z
				"/>
		</g>
		<g>
			<path fill="#66BBCE" stroke="#66BBCE" stroke-miterlimit="10" d="M117.29,388.461h86.345c0,47.685-38.654,86.339-86.345,86.339
				c-47.686,0-86.333-38.654-86.333-86.339c0-47.682,38.647-86.338,86.333-86.338c47.69,0,86.345,38.656,86.345,86.338l0,0H117.29z"
				/>
		</g>
		<g>
			<path fill="#008EAD" stroke="#66BBCE" stroke-miterlimit="10" d="M373.413,518.405h79.067c0,43.668-35.398,79.07-79.067,79.07
				c-43.662,0-79.067-35.402-79.067-79.07c0-43.669,35.405-79.066,79.067-79.066c43.67,0,79.067,35.397,79.067,79.066l0,0H373.413z"
				/>
		</g>
		<g>
			<path fill="#66BBCE" stroke="#66BBCE" stroke-miterlimit="10" d="M505.288,373.556h87.526c0,48.342-39.187,87.528-87.526,87.528
				c-48.336,0-87.52-39.186-87.52-87.528c0-48.339,39.184-87.523,87.52-87.523c48.339,0,87.526,39.185,87.526,87.523l0,0H505.288z"
				/>
		</g>
		<g>
			<path fill="#66BBCE" stroke="#66BBCE" stroke-miterlimit="10" d="M512.618,725.803h66.822c0,36.906-29.915,66.819-66.822,66.819
				c-36.911,0-66.826-29.913-66.826-66.819c0-36.901,29.915-66.824,66.826-66.824c36.906,0,66.822,29.923,66.822,66.824l0,0H512.618
				z"/>
		</g>
	</g>
	
		<line fill="none" stroke="#87868A" stroke-width="0.7" stroke-miterlimit="3.8636" stroke-dasharray="4,4" x1="-2.083" y1="854.446" x2="648.016" y2="854.446"/>
	
		<line fill="none" stroke="#87868A" stroke-width="0.7" stroke-miterlimit="3.8636" stroke-dasharray="4,4" x1="-2.083" y1="886.62" x2="648.016" y2="886.62"/>
	<rect x="-4.113" y="63.663" fill="none" width="632.084" height="27.284"/>
</g>
<style type="text/css">
#g-Sin-t_tulo-1-Mesa_de_trabajo_1-img rect, #g-Sin-t_tulo-1-Mesa_de_trabajo_1-img circle, #g-Sin-t_tulo-1-Mesa_de_trabajo_1-img path, #g-Sin-t_tulo-1-Mesa_de_trabajo_1-img line, #g-Sin-t_tulo-1-Mesa_de_trabajo_1-img polyline { vector-effect: non-scaling-stroke; }
</style>
</svg>

