<?xml version="1.0" encoding="utf-8"?>
<!-- Generator: Adobe Illustrator 23.0.3, SVG Export Plug-In . SVG Version: 6.00 Build 0)  -->
<svg version="1.2" baseProfile="tiny" id="g-sintit3-Mesa_de_trabajo_3-img" xmlns="http://www.w3.org/2000/svg" xmlns:xlink="http://www.w3.org/1999/xlink"
	 x="0px" y="0px" viewBox="0 0 558.287 2052.947" xml:space="preserve">
<g>
	<g>
		<g>
			
				<line fill="none" stroke="#87868A" stroke-width="0.7" stroke-miterlimit="3.8636" x1="-26.375" y1="1273.55" x2="623.78" y2="1273.55"/>
			<path fill="none" stroke="#87868A" stroke-width="0.4" stroke-miterlimit="3.8636" d="M623.78,1254.3"/>
			
				<line fill="none" stroke="#87868A" stroke-width="0.7" stroke-miterlimit="3.8636" x1="-26.375" y1="1235.044" x2="558.348" y2="1235.044"/>
			<path fill="none" stroke="#87868A" stroke-width="0.4" stroke-miterlimit="3.8636" d="M558.348,1215.794"/>
			
				<line fill="none" stroke="#87868A" stroke-width="0.7" stroke-miterlimit="3.8636" x1="-26.375" y1="1196.54" x2="558.348" y2="1196.54"/>
			<path fill="none" stroke="#87868A" stroke-width="0.4" stroke-miterlimit="3.8636" d="M558.348,1177.284"/>
			
				<line fill="none" stroke="#87868A" stroke-width="0.7" stroke-miterlimit="3.8636" x1="-26.375" y1="1158.032" x2="558.348" y2="1158.032"/>
			<path fill="none" stroke="#87868A" stroke-width="0.4" stroke-miterlimit="3.8636" d="M558.348,1138.779"/>
			
				<line fill="none" stroke="#87868A" stroke-width="0.7" stroke-miterlimit="3.8636" x1="-26.325" y1="1119.526" x2="558.348" y2="1119.526"/>
			<path fill="none" stroke="#87868A" stroke-width="0.4" stroke-miterlimit="3.8636" d="M558.348,1100.273"/>
			
				<line fill="none" stroke="#87868A" stroke-width="0.7" stroke-miterlimit="3.8636" x1="-26.375" y1="1081.02" x2="558.348" y2="1081.02"/>
			<path fill="none" stroke="#87868A" stroke-width="0.4" stroke-miterlimit="3.8636" d="M558.348,1061.77"/>
			
				<line fill="none" stroke="#87868A" stroke-width="0.7" stroke-miterlimit="3.8636" x1="-26.375" y1="1042.514" x2="558.348" y2="1042.514"/>
			<path fill="none" stroke="#87868A" stroke-width="0.4" stroke-miterlimit="3.8636" d="M558.348,1023.261"/>
			
				<line fill="none" stroke="#87868A" stroke-width="0.7" stroke-miterlimit="3.8636" x1="-26.375" y1="1004.01" x2="558.348" y2="1004.01"/>
			<path fill="none" stroke="#87868A" stroke-width="0.4" stroke-miterlimit="3.8636" d="M558.348,984.754"/>
			
				<line fill="none" stroke="#87868A" stroke-width="0.7" stroke-miterlimit="3.8636" x1="-26.375" y1="965.501" x2="558.348" y2="965.501"/>
			<path fill="none" stroke="#87868A" stroke-width="0.4" stroke-miterlimit="3.8636" d="M558.348,946.25"/>
			
				<line fill="none" stroke="#87868A" stroke-width="0.7" stroke-miterlimit="3.8636" x1="-26.325" y1="926.996" x2="558.348" y2="926.996"/>
			<path fill="none" stroke="#87868A" stroke-width="0.4" stroke-miterlimit="3.8636" d="M558.348,907.745"/>
			<path fill="none" stroke="#87868A" stroke-width="0.4" stroke-miterlimit="3.8636" stroke-dasharray="1.8,1.8" d="
				M-30.308,907.745"/>
			<g>
				
					<line fill="none" stroke="#87868A" stroke-width="0.7" stroke-miterlimit="3.8636" x1="-26.325" y1="887.884" x2="558.348" y2="887.884"/>
				<path fill="none" stroke="#87868A" stroke-width="0.4" stroke-miterlimit="3.8636" stroke-dasharray="1.8,1.8" d="
					M562.446,869.946"/>
				<path fill="none" stroke="#87868A" stroke-width="0.4" stroke-miterlimit="3.8636" stroke-dasharray="1.8,1.8" d="
					M-30.534,868.629"/>
				
					<line fill="none" stroke="#87868A" stroke-width="0.7" stroke-miterlimit="3.8636" x1="-26.375" y1="849.379" x2="558.348" y2="849.379"/>
				<path fill="none" stroke="#87868A" stroke-width="0.4" stroke-miterlimit="3.8636" d="M558.348,830.124"/>
				<path fill="none" stroke="#87868A" stroke-width="0.4" stroke-miterlimit="3.8636" stroke-dasharray="1.8,1.8" d="
					M-30.534,830.124"/>
				
					<line fill="none" stroke="#87868A" stroke-width="0.7" stroke-miterlimit="3.8636" x1="-26.325" y1="810.873" x2="558.348" y2="810.873"/>
				<path fill="none" stroke="#87868A" stroke-width="0.4" stroke-miterlimit="3.8636" d="M558.348,791.619"/>
				<path fill="none" stroke="#87868A" stroke-width="0.4" stroke-miterlimit="3.8636" stroke-dasharray="1.8,1.8" d="
					M-30.534,791.619"/>
				
					<line fill="none" stroke="#87868A" stroke-width="0.7" stroke-miterlimit="3.8636" x1="-26.325" y1="772.364" x2="558.348" y2="772.364"/>
				<path fill="none" stroke="#87868A" stroke-width="0.7" stroke-miterlimit="3.8636" d="M558.348,753.112"/>
				<path fill="none" stroke="#87868A" stroke-width="0.7" stroke-miterlimit="3.8636" d="M-30.534,753.112"/>
			</g>
			<g>
				
					<line fill="none" stroke="#87868A" stroke-width="0.7" stroke-miterlimit="3.8636" x1="-30.534" y1="2067.475" x2="623.78" y2="2067.475"/>
				<path fill="none" stroke="#87868A" stroke-width="0.4" stroke-miterlimit="3.8636" stroke-dasharray="1.8,1.8" d="
					M623.78,2015.374"/>
				
					<line fill="none" stroke="#87868A" stroke-width="0.7" stroke-miterlimit="3.8636" x1="-26.375" y1="1963.292" x2="623.78" y2="1963.292"/>
				<path fill="none" stroke="#87868A" stroke-width="0.4" stroke-miterlimit="3.8636" stroke-dasharray="1.8,1.8" d="
					M623.78,1911.195"/>
				
					<line fill="none" stroke="#87868A" stroke-width="0.7" stroke-miterlimit="3.8636" x1="-26.375" y1="1859.105" x2="623.78" y2="1859.105"/>
				<path fill="none" stroke="#87868A" stroke-width="0.4" stroke-miterlimit="3.8636" stroke-dasharray="1.8,1.8" d="
					M623.78,1807.008"/>
				
					<line fill="none" stroke="#87868A" stroke-width="0.7" stroke-miterlimit="3.8636" x1="-26.375" y1="1754.906" x2="623.78" y2="1754.906"/>
				<path fill="none" stroke="#87868A" stroke-width="0.4" stroke-miterlimit="3.8636" stroke-dasharray="1.8,1.8" d="
					M623.78,1702.813"/>
				
					<line fill="none" stroke="#87868A" stroke-width="0.7" stroke-miterlimit="3.8636" x1="-26.375" y1="1650.723" x2="623.78" y2="1650.723"/>
				<path fill="none" stroke="#87868A" stroke-width="0.4" stroke-miterlimit="3.8636" d="M623.78,1563.501"/>
				
					<line fill="none" stroke="#87868A" stroke-width="0.7" stroke-miterlimit="3.8636" x1="-26.319" y1="1466.992" x2="623.78" y2="1466.992"/>
				<path fill="none" stroke="#87868A" stroke-width="0.7" stroke-miterlimit="3.8636" d="M623.78,1535.459"/>
				<path fill="none" stroke="#87868A" stroke-width="0.7" stroke-miterlimit="3.8636" d="M-26.319,1535.459"/>
				<path fill="none" stroke="#87868A" stroke-width="0.4" stroke-miterlimit="3.8636" d="M623.78,1447.739"/>
				
					<line fill="none" stroke="#87868A" stroke-width="0.7" stroke-miterlimit="3.8636" x1="-26.375" y1="1428.484" x2="623.78" y2="1428.484"/>
				
					<line fill="none" stroke="#87868A" stroke-width="0.7" stroke-miterlimit="3.8636" stroke-dasharray="4,4" x1="-26.319" y1="1541.071" x2="623.78" y2="1541.071"/>
				
					<line fill="none" stroke="#87868A" stroke-width="0.7" stroke-miterlimit="3.8636" stroke-dasharray="4,4" x1="-26.347" y1="1563.501" x2="623.752" y2="1563.501"/>
				<path fill="none" stroke="#87868A" stroke-width="0.7" stroke-miterlimit="3.8636" d="M623.78,1466.696"/>
				<path fill="none" stroke="#87868A" stroke-width="0.7" stroke-miterlimit="3.8636" d="M-26.375,1466.696"/>
				<path fill="none" stroke="#87868A" stroke-width="0.4" stroke-miterlimit="3.8636" d="M623.78,1409.234"/>
				
					<line fill="none" stroke="#87868A" stroke-width="0.7" stroke-miterlimit="3.8636" x1="-26.375" y1="1389.978" x2="623.78" y2="1389.978"/>
				<path fill="none" stroke="#87868A" stroke-width="0.4" stroke-miterlimit="3.8636" d="M623.78,1370.725"/>
				
					<line fill="none" stroke="#87868A" stroke-width="0.7" stroke-miterlimit="3.8636" x1="-26.375" y1="1351.474" x2="623.78" y2="1351.474"/>
				<path fill="none" stroke="#87868A" stroke-width="0.4" stroke-miterlimit="3.8636" d="M623.78,1332.219"/>
				
					<line fill="none" stroke="#87868A" stroke-width="0.7" stroke-miterlimit="3.8636" x1="-26.375" y1="1312.964" x2="623.78" y2="1312.964"/>
				<path fill="none" stroke="#87868A" stroke-width="0.4" stroke-miterlimit="3.8636" d="M623.78,1293.713"/>
			</g>
		</g>
		<g>
			<path fill="none" stroke="#87868A" stroke-width="0.7" stroke-miterlimit="3.8636" d="M558.051,590.136"/>
			<path fill="none" stroke="#87868A" stroke-width="0.7" stroke-miterlimit="3.8636" d="M-3.763,590.136"/>
			<path fill="none" stroke="#87868A" stroke-width="0.7" stroke-miterlimit="3.8636" d="M558.051,584.94"/>
			<path fill="none" stroke="#87868A" stroke-width="0.7" stroke-miterlimit="3.8636" d="M-24.267,584.94"/>
			<path fill="none" stroke="#87868A" stroke-width="0.7" stroke-miterlimit="3.8636" d="M558.051,579.743"/>
			<path fill="none" stroke="#87868A" stroke-width="0.7" stroke-miterlimit="3.8636" d="M-24.354,579.743"/>
			<path fill="none" stroke="#87868A" stroke-width="0.7" stroke-miterlimit="3.8636" d="M558.051,574.547"/>
			<path fill="none" stroke="#87868A" stroke-width="0.7" stroke-miterlimit="3.8636" d="M-24.354,574.547"/>
			<path fill="none" stroke="#87868A" stroke-width="0.7" stroke-miterlimit="3.8636" d="M558.051,569.351"/>
			<path fill="none" stroke="#87868A" stroke-width="0.7" stroke-miterlimit="3.8636" d="M-24.354,569.351"/>
			<path fill="none" stroke="#87868A" stroke-width="0.7" stroke-miterlimit="3.8636" d="M558.051,564.154"/>
			<path fill="none" stroke="#87868A" stroke-width="0.7" stroke-miterlimit="3.8636" d="M-24.354,564.154"/>
			<path fill="none" stroke="#87868A" stroke-width="0.7" stroke-miterlimit="3.8636" d="M558.051,558.958"/>
			<path fill="none" stroke="#87868A" stroke-width="0.7" stroke-miterlimit="3.8636" d="M-24.354,558.958"/>
			<path fill="none" stroke="#87868A" stroke-width="0.4" stroke-miterlimit="3.8636" d="M558.051,553.762"/>
			<path fill="none" stroke="#87868A" stroke-width="0.4" stroke-miterlimit="3.8636" stroke-dasharray="1.8,1.8" d="
				M558.051,548.565"/>
			<path fill="none" stroke="#87868A" stroke-width="0.4" stroke-miterlimit="3.8636" stroke-dasharray="1.8,1.8" d="
				M558.051,543.369"/>
			<path fill="none" stroke="#87868A" stroke-width="0.4" stroke-miterlimit="3.8636" stroke-dasharray="1.8,1.8" d="
				M558.051,538.173"/>
			<path fill="none" stroke="#87868A" stroke-width="0.4" stroke-miterlimit="3.8636" stroke-dasharray="1.8,1.8" d="
				M558.051,532.975"/>
			<path fill="none" stroke="#87868A" stroke-width="0.4" stroke-miterlimit="3.8636" stroke-dasharray="1.8,1.8" d="
				M558.051,527.78"/>
			<path fill="none" stroke="#87868A" stroke-width="0.4" stroke-miterlimit="3.8636" stroke-dasharray="1.8,1.8" d="
				M558.051,522.584"/>
			<path fill="none" stroke="#87868A" stroke-width="0.4" stroke-miterlimit="3.8636" stroke-dasharray="1.8,1.8" d="
				M558.051,517.387"/>
			<g>
				<path fill="none" stroke="#87868A" stroke-width="0.4" stroke-miterlimit="3.8636" stroke-dasharray="1.8,1.8" d="
					M558.051,512.191"/>
				<path fill="none" stroke="#87868A" stroke-width="0.4" stroke-miterlimit="3.8636" stroke-dasharray="1.8,1.8" d="
					M-30.534,512.191"/>
				
					<line fill="none" stroke="#87868A" stroke-width="0.7" stroke-miterlimit="3.8636" x1="-24.624" y1="506.995" x2="558.051" y2="506.995"/>
				<path fill="none" stroke="#87868A" stroke-width="0.4" stroke-miterlimit="3.8636" stroke-dasharray="1.8,1.8" d="
					M558.051,501.798"/>
				<path fill="none" stroke="#87868A" stroke-width="0.4" stroke-miterlimit="3.8636" stroke-dasharray="1.8,1.8" d="
					M558.051,496.602"/>
				<path fill="none" stroke="#87868A" stroke-width="0.4" stroke-miterlimit="3.8636" stroke-dasharray="1.8,1.8" d="
					M558.051,491.406"/>
				<path fill="none" stroke="#87868A" stroke-width="0.4" stroke-miterlimit="3.8636" d="M558.051,486.209"/>
				<path fill="none" stroke="#87868A" stroke-width="0.4" stroke-miterlimit="3.8636" d="M558.051,481.013"/>
				<path fill="none" stroke="#87868A" stroke-width="0.4" stroke-miterlimit="3.8636" d="M558.051,475.817"/>
				<path fill="none" stroke="#87868A" stroke-width="0.4" stroke-miterlimit="3.8636" d="M558.051,470.621"/>
				<path fill="none" stroke="#87868A" stroke-width="0.4" stroke-miterlimit="3.8636" d="M558.051,465.424"/>
				<path fill="none" stroke="#87868A" stroke-width="0.4" stroke-miterlimit="3.8636" d="M558.051,460.228"/>
				<path fill="none" stroke="#87868A" stroke-width="0.4" stroke-miterlimit="3.8636" stroke-dasharray="1.8,1.8" d="
					M-30.534,460.228"/>
				<path fill="none" stroke="#87868A" stroke-width="0.4" stroke-miterlimit="3.8636" d="M558.051,455.031"/>
				<path fill="none" stroke="#87868A" stroke-width="0.4" stroke-miterlimit="3.8636" d="M558.051,449.835"/>
				<path fill="none" stroke="#87868A" stroke-width="0.4" stroke-miterlimit="3.8636" stroke-dasharray="1.8,1.8" d="
					M-30.534,449.835"/>
				<path fill="none" stroke="#87868A" stroke-width="0.4" stroke-miterlimit="3.8636" d="M558.051,444.638"/>
				<path fill="none" stroke="#87868A" stroke-width="0.4" stroke-miterlimit="3.8636" stroke-dasharray="1.8,1.8" d="
					M-30.534,444.638"/>
				<path fill="none" stroke="#87868A" stroke-width="0.4" stroke-miterlimit="3.8636" d="M558.051,439.442"/>
				<path fill="none" stroke="#87868A" stroke-width="0.4" stroke-miterlimit="3.8636" d="M558.051,434.246"/>
				<path fill="none" stroke="#87868A" stroke-width="0.4" stroke-miterlimit="3.8636" d="M558.051,429.05"/>
				<path fill="none" stroke="#87868A" stroke-width="0.4" stroke-miterlimit="3.8636" d="M558.051,423.854"/>
				<path fill="none" stroke="#87868A" stroke-width="0.4" stroke-miterlimit="3.8636" d="M558.051,418.657"/>
				<path fill="none" stroke="#87868A" stroke-width="0.4" stroke-miterlimit="3.8636" d="M558.051,413.461"/>
			</g>
			<g>
				<path fill="none" stroke="#87868A" stroke-width="0.4" stroke-miterlimit="3.8636" d="M558.051,303.928"/>
				<path fill="none" stroke="#87868A" stroke-width="0.4" stroke-miterlimit="3.8636" stroke-dasharray="1.8,1.8" d="
					M-30.534,303.928"/>
				
					<line fill="none" stroke="#87868A" stroke-width="0.7" stroke-miterlimit="3.8636" x1="-24.624" y1="298.732" x2="558.051" y2="298.732"/>
				<path fill="none" stroke="#87868A" stroke-width="0.4" stroke-miterlimit="3.8636" d="M558.051,293.536"/>
				<path fill="none" stroke="#87868A" stroke-width="0.4" stroke-miterlimit="3.8636" stroke-dasharray="1.8,1.8" d="
					M-30.534,293.536"/>
				<path fill="none" stroke="#87868A" stroke-width="0.4" stroke-miterlimit="3.8636" d="M558.051,288.339"/>
				<path fill="none" stroke="#87868A" stroke-width="0.4" stroke-miterlimit="3.8636" stroke-dasharray="1.8,1.8" d="
					M-30.534,288.339"/>
				<path fill="none" stroke="#87868A" stroke-width="0.4" stroke-miterlimit="3.8636" d="M558.051,283.143"/>
				<path fill="none" stroke="#87868A" stroke-width="0.4" stroke-miterlimit="3.8636" stroke-dasharray="1.8,1.8" d="
					M-30.534,283.143"/>
				<path fill="none" stroke="#87868A" stroke-width="0.4" stroke-miterlimit="3.8636" d="M558.051,277.947"/>
				<path fill="none" stroke="#87868A" stroke-width="0.4" stroke-miterlimit="3.8636" stroke-dasharray="1.8,1.8" d="
					M-30.534,277.947"/>
				<path fill="none" stroke="#87868A" stroke-width="0.4" stroke-miterlimit="3.8636" d="M558.051,272.75"/>
				<path fill="none" stroke="#87868A" stroke-width="0.4" stroke-miterlimit="3.8636" d="M558.051,267.554"/>
				<path fill="none" stroke="#87868A" stroke-width="0.4" stroke-miterlimit="3.8636" d="M558.051,262.358"/>
				<path fill="none" stroke="#87868A" stroke-width="0.4" stroke-miterlimit="3.8636" d="M558.051,257.162"/>
				<path fill="none" stroke="#87868A" stroke-width="0.4" stroke-miterlimit="3.8636" d="M558.051,251.965"/>
				<path fill="none" stroke="#87868A" stroke-width="0.4" stroke-miterlimit="3.8636" d="M558.051,246.769"/>
				<path fill="none" stroke="#87868A" stroke-width="0.4" stroke-miterlimit="3.8636" d="M558.051,241.573"/>
				<path fill="none" stroke="#87868A" stroke-width="0.4" stroke-miterlimit="3.8636" d="M558.051,236.377"/>
				<path fill="none" stroke="#87868A" stroke-width="0.4" stroke-miterlimit="3.8636" d="M558.051,231.18"/>
				<path fill="none" stroke="#87868A" stroke-width="0.4" stroke-miterlimit="3.8636" d="M558.051,225.984"/>
				<path fill="none" stroke="#87868A" stroke-width="0.4" stroke-miterlimit="3.8636" d="M558.051,220.787"/>
				<path fill="none" stroke="#87868A" stroke-width="0.4" stroke-miterlimit="3.8636" d="M558.051,215.591"/>
				<path fill="none" stroke="#87868A" stroke-width="0.4" stroke-miterlimit="3.8636" d="M558.051,210.395"/>
				<path fill="none" stroke="#87868A" stroke-width="0.4" stroke-miterlimit="3.8636" d="M558.051,205.198"/>
				<path fill="none" stroke="#87868A" stroke-width="0.4" stroke-miterlimit="3.8636" stroke-dasharray="1.8,1.8" d="
					M-30.534,205.198"/>
			</g>
			<g>
				<path fill="none" stroke="#87868A" stroke-width="0.4" stroke-miterlimit="3.8636" d="M558.051,96.239"/>
				<path fill="none" stroke="#87868A" stroke-width="0.4" stroke-miterlimit="3.8636" stroke-dasharray="1.8,1.8" d="
					M-30.534,96.239"/>
				
					<line fill="none" stroke="#87868A" stroke-width="0.7" stroke-miterlimit="3.8636" x1="-24.624" y1="91.042" x2="558.051" y2="91.042"/>
				<path fill="none" stroke="#87868A" stroke-width="0.4" stroke-miterlimit="3.8636" d="M558.051,85.847"/>
				<path fill="none" stroke="#87868A" stroke-width="0.4" stroke-miterlimit="3.8636" stroke-dasharray="1.8,1.8" d="
					M-30.534,85.847"/>
				<path fill="none" stroke="#87868A" stroke-width="0.4" stroke-miterlimit="3.8636" d="M558.051,80.65"/>
				<path fill="none" stroke="#87868A" stroke-width="0.4" stroke-miterlimit="3.8636" stroke-dasharray="1.8,1.8" d="
					M-30.534,80.65"/>
				<path fill="none" stroke="#87868A" stroke-width="0.4" stroke-miterlimit="3.8636" d="M558.051,75.453"/>
				<path fill="none" stroke="#87868A" stroke-width="0.4" stroke-miterlimit="3.8636" stroke-dasharray="1.8,1.8" d="
					M-30.534,75.453"/>
				<path fill="none" stroke="#87868A" stroke-width="0.4" stroke-miterlimit="3.8636" d="M558.051,70.257"/>
				<path fill="none" stroke="#87868A" stroke-width="0.4" stroke-miterlimit="3.8636" stroke-dasharray="1.8,1.8" d="
					M-30.534,70.257"/>
				<path fill="none" stroke="#87868A" stroke-width="0.4" stroke-miterlimit="3.8636" d="M558.051,65.061"/>
				<path fill="none" stroke="#87868A" stroke-width="0.4" stroke-miterlimit="3.8636" stroke-dasharray="1.8,1.8" d="
					M-30.534,65.061"/>
				<path fill="none" stroke="#87868A" stroke-width="0.4" stroke-miterlimit="3.8636" d="M558.051,59.864"/>
				<path fill="none" stroke="#87868A" stroke-width="0.4" stroke-miterlimit="3.8636" d="M558.051,54.668"/>
				<path fill="none" stroke="#87868A" stroke-width="0.4" stroke-miterlimit="3.8636" d="M558.051,49.472"/>
				<path fill="none" stroke="#87868A" stroke-width="0.4" stroke-miterlimit="3.8636" d="M558.051,44.275"/>
				<path fill="none" stroke="#87868A" stroke-width="0.4" stroke-miterlimit="3.8636" d="M558.051,39.079"/>
				<path fill="none" stroke="#87868A" stroke-width="0.4" stroke-miterlimit="3.8636" d="M558.051,33.883"/>
				<path fill="none" stroke="#87868A" stroke-width="0.4" stroke-miterlimit="3.8636" d="M558.051,28.686"/>
				<path fill="none" stroke="#87868A" stroke-width="0.4" stroke-miterlimit="3.8636" d="M558.051,23.49"/>
				<path fill="none" stroke="#87868A" stroke-width="0.4" stroke-miterlimit="3.8636" d="M558.051,18.294"/>
				<path fill="none" stroke="#87868A" stroke-width="0.4" stroke-miterlimit="3.8636" d="M558.051,13.097"/>
				<path fill="none" stroke="#87868A" stroke-width="0.4" stroke-miterlimit="3.8636" d="M558.051,7.902"/>
				<path fill="none" stroke="#87868A" stroke-width="0.4" stroke-miterlimit="3.8636" d="M558.051,2.705"/>
				<path fill="none" stroke="#87868A" stroke-width="0.4" stroke-miterlimit="3.8636" d="M558.051-2.492"/>
				<path fill="none" stroke="#87868A" stroke-width="0.4" stroke-miterlimit="3.8636" stroke-dasharray="1.8,1.8" d="
					M-30.534-2.492"/>
				<path fill="none" stroke="#87868A" stroke-width="0.4" stroke-miterlimit="3.8636" d="M558.051-7.728"/>
				<path fill="none" stroke="#87868A" stroke-width="0.4" stroke-miterlimit="3.8636" stroke-dasharray="1.8,1.8" d="
					M-30.534-7.728"/>
				
					<line fill="none" stroke="#87868A" stroke-width="0.7" stroke-miterlimit="3.8636" x1="-24.624" y1="-12.93" x2="558.051" y2="-12.93"/>
			</g>
			<g>
				<path fill="none" stroke="#87868A" stroke-width="0.4" stroke-miterlimit="3.8636" d="M558.051-18.206"/>
				<path fill="none" stroke="#87868A" stroke-width="0.4" stroke-miterlimit="3.8636" stroke-dasharray="1.8,1.8" d="
					M-30.534-18.206"/>
				<path fill="none" stroke="#87868A" stroke-width="0.4" stroke-miterlimit="3.8636" d="M558.051-23.403"/>
				<path fill="none" stroke="#87868A" stroke-width="0.4" stroke-miterlimit="3.8636" stroke-dasharray="1.8,1.8" d="
					M-30.534-23.403"/>
				<path fill="none" stroke="#87868A" stroke-width="0.4" stroke-miterlimit="3.8636" d="M558.051-28.6"/>
				<path fill="none" stroke="#87868A" stroke-width="0.4" stroke-miterlimit="3.8636" stroke-dasharray="1.8,1.8" d="M-30.534-28.6
					"/>
				<path fill="none" stroke="#87868A" stroke-width="0.4" stroke-miterlimit="3.8636" d="M558.051-33.796"/>
				<path fill="none" stroke="#87868A" stroke-width="0.4" stroke-miterlimit="3.8636" stroke-dasharray="1.8,1.8" d="
					M-30.534-33.796"/>
				<path fill="none" stroke="#87868A" stroke-width="0.4" stroke-miterlimit="3.8636" d="M558.051-38.992"/>
				<path fill="none" stroke="#87868A" stroke-width="0.4" stroke-miterlimit="3.8636" stroke-dasharray="1.8,1.8" d="
					M-30.534-38.992"/>
				<path fill="none" stroke="#87868A" stroke-width="0.4" stroke-miterlimit="3.8636" d="M558.051-44.189"/>
				<path fill="none" stroke="#87868A" stroke-width="0.4" stroke-miterlimit="3.8636" stroke-dasharray="1.8,1.8" d="
					M-30.534-44.189"/>
				<path fill="none" stroke="#87868A" stroke-width="0.4" stroke-miterlimit="3.8636" d="M558.051-49.385"/>
				<path fill="none" stroke="#87868A" stroke-width="0.4" stroke-miterlimit="3.8636" stroke-dasharray="1.8,1.8" d="
					M-30.534-49.385"/>
				<path fill="none" stroke="#87868A" stroke-width="0.4" stroke-miterlimit="3.8636" d="M623.78-54.581"/>
				<path fill="none" stroke="#87868A" stroke-width="0.4" stroke-miterlimit="3.8636" stroke-dasharray="1.8,1.8" d="
					M-30.534-54.581"/>
			</g>
			<path fill="none" stroke="#87868A" stroke-width="0.4" stroke-miterlimit="3.8636" d="M558.051,408.265"/>
			<path fill="none" stroke="#87868A" stroke-width="0.4" stroke-miterlimit="3.8636" stroke-dasharray="1.8,1.8" d="
				M-30.534,408.265"/>
			
				<line fill="none" stroke="#87868A" stroke-width="0.7" stroke-miterlimit="3.8636" x1="-22.464" y1="403.068" x2="558.051" y2="403.068"/>
			<path fill="none" stroke="#87868A" stroke-width="0.4" stroke-miterlimit="3.8636" d="M558.051,397.872"/>
			<path fill="none" stroke="#87868A" stroke-width="0.4" stroke-miterlimit="3.8636" stroke-dasharray="1.8,1.8" d="
				M-30.534,397.872"/>
			<path fill="none" stroke="#87868A" stroke-width="0.4" stroke-miterlimit="3.8636" d="M558.051,392.676"/>
			<path fill="none" stroke="#87868A" stroke-width="0.4" stroke-miterlimit="3.8636" d="M558.051,387.48"/>
			<path fill="none" stroke="#87868A" stroke-width="0.4" stroke-miterlimit="3.8636" d="M558.051,382.283"/>
			<path fill="none" stroke="#87868A" stroke-width="0.4" stroke-miterlimit="3.8636" d="M558.051,377.087"/>
			<path fill="none" stroke="#87868A" stroke-width="0.4" stroke-miterlimit="3.8636" d="M558.051,371.891"/>
			<path fill="none" stroke="#87868A" stroke-width="0.4" stroke-miterlimit="3.8636" d="M558.051,366.694"/>
			<path fill="none" stroke="#87868A" stroke-width="0.4" stroke-miterlimit="3.8636" d="M558.051,361.499"/>
			<path fill="none" stroke="#87868A" stroke-width="0.4" stroke-miterlimit="3.8636" d="M558.051,356.302"/>
			<path fill="none" stroke="#87868A" stroke-width="0.4" stroke-miterlimit="3.8636" stroke-dasharray="1.8,1.8" d="
				M-30.534,356.302"/>
			<path fill="none" stroke="#87868A" stroke-width="0.4" stroke-miterlimit="3.8636" d="M558.051,351.105"/>
			<path fill="none" stroke="#87868A" stroke-width="0.4" stroke-miterlimit="3.8636" d="M558.051,345.909"/>
			<path fill="none" stroke="#87868A" stroke-width="0.4" stroke-miterlimit="3.8636" d="M558.051,340.713"/>
			<path fill="none" stroke="#87868A" stroke-width="0.4" stroke-miterlimit="3.8636" d="M558.051,335.516"/>
			<path fill="none" stroke="#87868A" stroke-width="0.4" stroke-miterlimit="3.8636" d="M558.051,330.32"/>
			<path fill="none" stroke="#87868A" stroke-width="0.4" stroke-miterlimit="3.8636" d="M558.051,325.124"/>
			<path fill="none" stroke="#87868A" stroke-width="0.4" stroke-miterlimit="3.8636" d="M558.051,319.928"/>
			<path fill="none" stroke="#87868A" stroke-width="0.4" stroke-miterlimit="3.8636" d="M558.051,314.731"/>
			<path fill="none" stroke="#87868A" stroke-width="0.4" stroke-miterlimit="3.8636" stroke-dasharray="1.8,1.8" d="
				M-30.534,314.731"/>
			<path fill="none" stroke="#87868A" stroke-width="0.4" stroke-miterlimit="3.8636" d="M558.051,309.535"/>
			<path fill="none" stroke="#87868A" stroke-width="0.4" stroke-miterlimit="3.8636" stroke-dasharray="1.8,1.8" d="
				M-30.534,309.535"/>
			<path fill="none" stroke="#87868A" stroke-width="0.4" stroke-miterlimit="3.8636" d="M558.051,200.412"/>
			<path fill="none" stroke="#87868A" stroke-width="0.4" stroke-miterlimit="3.8636" stroke-dasharray="1.8,1.8" d="
				M-30.534,200.412"/>
			
				<line fill="none" stroke="#87868A" stroke-width="0.7" stroke-miterlimit="3.8636" x1="-24.624" y1="195.216" x2="558.051" y2="195.216"/>
			
				<line fill="none" stroke="#87868A" stroke-width="0.7" stroke-miterlimit="3.8636" x1="-24.624" y1="455.045" x2="558.051" y2="455.045"/>
			
				<line fill="none" stroke="#87868A" stroke-width="0.7" stroke-miterlimit="3.8636" x1="-24.624" y1="246.782" x2="558.051" y2="246.782"/>
			
				<line fill="none" stroke="#87868A" stroke-width="0.7" stroke-miterlimit="3.8636" x1="-24.624" y1="39.092" x2="558.051" y2="39.092"/>
			
				<line fill="none" stroke="#87868A" stroke-width="0.7" stroke-miterlimit="3.8636" x1="-24.624" y1="351.118" x2="558.051" y2="351.118"/>
			
				<line fill="none" stroke="#87868A" stroke-width="0.7" stroke-miterlimit="3.8636" x1="-24.624" y1="143.266" x2="558.051" y2="143.266"/>
			<path fill="none" stroke="#87868A" stroke-width="0.4" stroke-miterlimit="3.8636" d="M558.051,190.02"/>
			<path fill="none" stroke="#87868A" stroke-width="0.4" stroke-miterlimit="3.8636" stroke-dasharray="1.8,1.8" d="
				M-30.534,190.02"/>
			<path fill="none" stroke="#87868A" stroke-width="0.4" stroke-miterlimit="3.8636" d="M558.051,184.823"/>
			<path fill="none" stroke="#87868A" stroke-width="0.4" stroke-miterlimit="3.8636" stroke-dasharray="1.8,1.8" d="
				M-30.534,184.823"/>
			<path fill="none" stroke="#87868A" stroke-width="0.4" stroke-miterlimit="3.8636" d="M558.051,179.627"/>
			<path fill="none" stroke="#87868A" stroke-width="0.4" stroke-miterlimit="3.8636" stroke-dasharray="1.8,1.8" d="
				M-30.534,179.627"/>
			<path fill="none" stroke="#87868A" stroke-width="0.4" stroke-miterlimit="3.8636" d="M558.051,174.431"/>
			<path fill="none" stroke="#87868A" stroke-width="0.4" stroke-miterlimit="3.8636" stroke-dasharray="1.8,1.8" d="
				M-30.534,174.431"/>
			<path fill="none" stroke="#87868A" stroke-width="0.4" stroke-miterlimit="3.8636" d="M558.051,169.234"/>
			<path fill="none" stroke="#87868A" stroke-width="0.4" stroke-miterlimit="3.8636" stroke-dasharray="1.8,1.8" d="
				M-30.534,169.234"/>
			<path fill="none" stroke="#87868A" stroke-width="0.4" stroke-miterlimit="3.8636" d="M558.051,164.038"/>
			<path fill="none" stroke="#87868A" stroke-width="0.4" stroke-miterlimit="3.8636" stroke-dasharray="1.8,1.8" d="
				M-30.534,164.038"/>
			<path fill="none" stroke="#87868A" stroke-width="0.4" stroke-miterlimit="3.8636" d="M558.051,158.842"/>
			<path fill="none" stroke="#87868A" stroke-width="0.4" stroke-miterlimit="3.8636" stroke-dasharray="1.8,1.8" d="
				M-30.534,158.842"/>
			<path fill="none" stroke="#87868A" stroke-width="0.4" stroke-miterlimit="3.8636" d="M558.051,153.646"/>
			<path fill="none" stroke="#87868A" stroke-width="0.4" stroke-miterlimit="3.8636" stroke-dasharray="1.8,1.8" d="
				M-30.534,153.646"/>
			<path fill="none" stroke="#87868A" stroke-width="0.4" stroke-miterlimit="3.8636" d="M558.051,148.449"/>
			<path fill="none" stroke="#87868A" stroke-width="0.4" stroke-miterlimit="3.8636" stroke-dasharray="1.8,1.8" d="
				M-30.534,148.449"/>
			<path fill="none" stroke="#87868A" stroke-width="0.4" stroke-miterlimit="3.8636" d="M558.051,143.253"/>
			<path fill="none" stroke="#87868A" stroke-width="0.4" stroke-miterlimit="3.8636" stroke-dasharray="1.8,1.8" d="
				M-30.534,143.253"/>
			<path fill="none" stroke="#87868A" stroke-width="0.4" stroke-miterlimit="3.8636" d="M558.051,138.057"/>
			<path fill="none" stroke="#87868A" stroke-width="0.4" stroke-miterlimit="3.8636" stroke-dasharray="1.8,1.8" d="
				M-30.534,138.057"/>
			<path fill="none" stroke="#87868A" stroke-width="0.4" stroke-miterlimit="3.8636" d="M558.051,132.86"/>
			<path fill="none" stroke="#87868A" stroke-width="0.4" stroke-miterlimit="3.8636" stroke-dasharray="1.8,1.8" d="
				M-30.534,132.86"/>
			<path fill="none" stroke="#87868A" stroke-width="0.4" stroke-miterlimit="3.8636" d="M558.051,127.665"/>
			<path fill="none" stroke="#87868A" stroke-width="0.4" stroke-miterlimit="3.8636" d="M558.051,122.467"/>
			<path fill="none" stroke="#87868A" stroke-width="0.4" stroke-miterlimit="3.8636" d="M558.051,117.272"/>
			<path fill="none" stroke="#87868A" stroke-width="0.4" stroke-miterlimit="3.8636" d="M558.051,112.075"/>
			<path fill="none" stroke="#87868A" stroke-width="0.4" stroke-miterlimit="3.8636" d="M558.051,106.879"/>
			<path fill="none" stroke="#87868A" stroke-width="0.4" stroke-miterlimit="3.8636" stroke-dasharray="1.8,1.8" d="
				M-30.534,106.879"/>
			<path fill="none" stroke="#87868A" stroke-width="0.4" stroke-miterlimit="3.8636" d="M558.051,101.682"/>
			<path fill="none" stroke="#87868A" stroke-width="0.4" stroke-miterlimit="3.8636" stroke-dasharray="1.8,1.8" d="
				M-30.534,101.682"/>
		</g>
		<path fill="none" stroke="#87868A" stroke-width="0.7" stroke-miterlimit="3.8636" d="M558.348,766.001"/>
		<path fill="none" stroke="#87868A" stroke-width="0.7" stroke-miterlimit="3.8636" d="M558.051,594.098"/>
	</g>
	
		<line fill="none" stroke="#87868A" stroke-width="0.7" stroke-miterlimit="3.8636" x1="-24.327" y1="610.922" x2="558.348" y2="610.922"/>
	
		<line fill="none" stroke="#87868A" stroke-width="0.7" stroke-miterlimit="3.8636" x1="-24.327" y1="558.971" x2="558.348" y2="558.971"/>
	
		<line fill="none" stroke="#87868A" stroke-width="0.7" stroke-miterlimit="3.8636" x1="-27.024" y1="610.948" x2="555.651" y2="610.948"/>
	<g>
		<g>
			
				<text transform="matrix(1 0 0 1 -26.375 806.4648)" display="none" fill="#B1B0B1" font-family="'OpenSans-Regular'" font-size="15px">220</text>
		</g>
		<g>
			
				<text transform="matrix(1 0 0 1 -24.2671 728.2962)" display="none" fill="#B1B0B1" font-family="'OpenSans-Regular'" font-size="15px">240</text>
		</g>
		<g>
			
				<text transform="matrix(1 0 0 1 -24.3539 -23.403)" display="none" fill="#B1B0B1" font-family="'OpenSans-Regular'" font-size="15px">1 billón de €</text>
		</g>
		<g>
			
				<text transform="matrix(1 0 0 1 -26.3194 -63.0027)" display="none" fill="#313131" font-family="'OpenSans-Regular'" font-size="20px">Empresas del sector que cotizan en bolsa</text>
		</g>
		<g>
			<g>
				
					<text transform="matrix(1 0 0 1 -24.3541 293.536)" display="none" fill="#B1B0B1" font-family="'OpenSans-Regular'" font-size="11.8918px">700</text>
			</g>
			<g>
				
					<text transform="matrix(1 0 0 1 -26.3752 397.8719)" display="none" fill="#B1B0B1" font-family="'OpenSans-Regular'" font-size="15px">600</text>
			</g>
			<g>
				
					<text transform="matrix(1 0 0 1 -26.3195 501.7984)" display="none" fill="#B1B0B1" font-family="'OpenSans-Regular'" font-size="15px">500</text>
			</g>
			<g>
				
					<text transform="matrix(1 0 0 1 -24.3541 188.5163)" display="none" fill="#B1B0B1" font-family="'OpenSans-Regular'" font-size="15px">800</text>
			</g>
			<g>
				
					<text transform="matrix(1 0 0 1 -24.3541 85.8467)" display="none" fill="#B1B0B1" font-family="'OpenSans-Regular'" font-size="15px">900 miles de millones </text>
			</g>
		</g>
		<g>
			
				<text transform="matrix(0.9906 0 0 1 -24.6222 605.2751)" display="none" fill="#B1B0B1" font-family="'OpenSans-Regular'" font-size="15px">400</text>
		</g>
		<g>
			
				<text transform="matrix(1 0 0 1 -26.3752 884.3604)" display="none" fill="#B1B0B1" font-family="'OpenSans-Regular'" font-size="15px">200</text>
		</g>
		<g>
			<text transform="matrix(0.9923 0 0 1 -26.752 2063.0798)" fill="#B1B0B1" font-family="'OpenSans-Regular'" font-size="15px">0</text>
		</g>
		<g>
			
				<text transform="matrix(0.9923 0 0 1 -26.3753 1853.233)" display="none" fill="#B1B0B1" font-family="'OpenSans-Regular'" font-size="15px">20</text>
		</g>
		<g>
			<text transform="matrix(1 0 0 1 -26.3753 1630.4808)" fill="#B1B0B1" font-family="'OpenSans-Regular'" font-size="15px">40</text>
		</g>
		<g>
			
				<text transform="matrix(1 0 0 1 -26.3752 1425.2737)" display="none" fill="#B1B0B1" font-family="'OpenSans-Regular'" font-size="15px">60</text>
		</g>
		<g>
			
				<text transform="matrix(1 0 0 1 -26.3752 1348.7258)" display="none" fill="#B1B0B1" font-family="'OpenSans-Regular'" font-size="15px">80</text>
		</g>
		<g>
			
				<text transform="matrix(1 0 0 1 -26.3195 1269.1843)" display="none" fill="#B1B0B1" font-family="'OpenSans-Regular'" font-size="15px">100</text>
		</g>
		<g>
			
				<text transform="matrix(1 0 0 1 -26.3752 1191.5256)" display="none" fill="#B1B0B1" font-family="'OpenSans-Regular'" font-size="15px">120</text>
		</g>
		<g>
			
				<text transform="matrix(1 0 0 1 -26.3195 1115.344)" display="none" fill="#B1B0B1" font-family="'OpenSans-Regular'" font-size="15px">140</text>
		</g>
		<g>
			
				<text transform="matrix(1 0 0 1 -26.3752 1038.2957)" display="none" fill="#B1B0B1" font-family="'OpenSans-Regular'" font-size="15px">160</text>
		</g>
		<g>
			
				<text transform="matrix(1 0 0 1 -26.375 960.0929)" display="none" fill="#B1B0B1" font-family="'OpenSans-Regular'" font-size="15px">180</text>
		</g>
	</g>
	
		<line fill="none" stroke="#87868A" stroke-width="0.7" stroke-miterlimit="3.8636" x1="-26.325" y1="733.857" x2="558.348" y2="733.857"/>
	<path fill="none" stroke="#87868A" stroke-width="0.7" stroke-miterlimit="3.8636" d="M555.651,506.995"/>
	<g style="opacity:0.75;">
		<g>
			<path fill="#E2B600" stroke="#E2B600" stroke-miterlimit="10" d="M33.734,1960.247h9.796c0,5.4-4.39,9.783-9.796,9.783
				s-9.791-4.383-9.791-9.783c0-5.409,4.385-9.804,9.791-9.804s9.796,4.395,9.796,9.804l0,0H33.734z"/>
		</g>
		<g>
			<path fill="#AF6166" stroke="#AF6166" stroke-miterlimit="10" d="M382.284,1435.436h23.537c0,12.998-10.548,23.525-23.537,23.525
				c-12.983,0-23.527-10.527-23.527-23.525c0-12.995,10.543-23.531,23.527-23.531c12.989,0,23.537,10.536,23.537,23.531l0,0H382.284
				z"/>
		</g>
		<g>
			<path fill="#66BBCE" stroke="#66BBCE" stroke-miterlimit="10" d="M336.89,1748.675h15.231c0,8.651-7.221,15.618-15.959,15.211
				c-7.752-0.361-14.125-6.743-14.481-14.495c-0.4-8.735,6.562-15.944,15.208-15.944c8.408,0,15.231,6.819,15.231,15.228l0,0H336.89
				z"/>
		</g>
		<g>
			<path fill="#AF6166" stroke="#AF6166" stroke-miterlimit="10" d="M519.222,1396.297h25.431c0,14.052-11.381,25.438-25.431,25.438
				c-14.047,0-25.428-11.387-25.428-25.438c0-14.037,11.381-25.427,25.428-25.427c14.03,0,25.431,11.398,25.431,25.427H519.222z"/>
		</g>
		<g>
			<path fill="#66BBCE" stroke="#66BBCE" stroke-miterlimit="10" d="M80.931,950.873h41.689c0,23.02-18.664,41.685-41.689,41.685
				c-23.019,0-41.682-18.665-41.682-41.685c0-23.019,18.664-41.681,41.682-41.681c23.026,0,41.689,18.662,41.689,41.681l0,0H80.931z
				"/>
		</g>
		<g>
			<path fill="#66BBCE" stroke="#66BBCE" stroke-miterlimit="10" d="M151.287,848.185h44.597c0,24.628-19.97,44.591-44.597,44.591
				s-44.593-19.963-44.593-44.591c0-24.63,19.966-44.6,44.593-44.6s44.597,19.97,44.597,44.6l-0.013-0.778L151.287,848.185z"/>
		</g>
		<g>
			<path fill="#66BBCE" stroke="#66BBCE" stroke-miterlimit="10" d="M184.547,1002.4h40.087c0,22.143-17.942,40.088-40.087,40.088
				c-22.14,0-40.088-17.945-40.088-40.088c0-22.149,17.948-40.094,40.088-40.094c22.145,0,40.087,17.945,40.087,40.094l0,0H184.547z
				"/>
		</g>
		<g>
			<path fill="#66BBCE" stroke="#66BBCE" stroke-miterlimit="10" d="M318.763,1125.523h36.13c0,19.954-16.177,36.125-36.13,36.125
				c-19.945,0-36.125-16.171-36.125-36.125c0-19.948,16.18-36.125,36.125-36.125c19.928,0,36.13,16.197,36.13,36.125H318.763z"/>
		</g>
		<g>
			<path fill="#66BBCE" stroke="#66BBCE" stroke-miterlimit="10" d="M518.479,1187.454h34.118c0,18.848-15.276,34.128-34.118,34.128
				c-18.842,0-34.116-15.28-34.116-34.128c0-18.833,15.274-34.108,34.116-34.108c18.842,0,34.118,15.274,34.118,34.108l0,0H518.479z
				"/>
		</g>
		<g>
			<path fill="#66BBCE" stroke="#66BBCE" stroke-miterlimit="10" d="M421.068,1204.299h33.375c0,18.427-14.933,33.367-33.375,33.367
				c-18.433,0-33.373-14.94-33.373-33.367c0-18.436,14.94-33.379,33.373-33.379c18.442,0,33.375,14.943,33.375,33.379l0,0H421.068z"
				/>
		</g>
		<g>
			<path fill="#66BBCE" stroke="#66BBCE" stroke-miterlimit="10" d="M526.339,1288.527h30.195c0,16.676-13.519,30.197-30.195,30.197
				c-16.682,0-30.194-13.521-30.194-30.197c0-16.673,13.512-30.203,30.194-30.203c16.676,0,30.195,13.529,30.195,30.203l0,0H526.339
				z"/>
		</g>
		<g>
			<path fill="#66BBCE" stroke="#66BBCE" stroke-miterlimit="10" d="M333.231,1348.726h27.652c0,15.268-12.381,27.645-27.652,27.645
				c-15.265,0-27.646-12.377-27.646-27.645c0-15.271,12.381-27.645,27.646-27.645c15.271,0,27.652,12.374,27.652,27.645l0,0H333.231
				z"/>
		</g>
		<g>
			<path fill="#66BBCE" stroke="#66BBCE" stroke-miterlimit="10" d="M283.938,1304.258h29.436c0,16.258-13.174,29.442-29.436,29.442
				c-16.258,0-29.428-13.184-29.428-29.442c0-16.247,13.169-29.433,29.428-29.433c16.263,0,29.436,13.187,29.436,29.433l0,0H283.938
				z"/>
		</g>
		<g>
			<path fill="#66BBCE" stroke="#66BBCE" stroke-miterlimit="10" d="M447.595,1338.516h28.101c0,15.512-12.577,28.104-28.101,28.104
				c-15.518,0-28.091-12.591-28.091-28.104c0-15.521,12.573-28.089,28.091-28.089c15.524,0,28.101,12.568,28.101,28.089l0,0H447.595
				z"/>
		</g>
		<g>
			<path fill="#66BBCE" stroke="#66BBCE" stroke-miterlimit="10" d="M224.646,1360.079h27.034c0,14.929-12.104,27.032-27.034,27.032
				c-14.923,0-27.019-12.104-27.019-27.032s12.096-27.038,27.019-27.038c14.93,0,27.034,12.11,27.034,27.038l0,0H224.646z"/>
		</g>
		<g>
			<path fill="#66BBCE" stroke="#66BBCE" stroke-miterlimit="10" d="M368.162,1702.863h8.723c0,10.016-8.125,18.132-18.128,18.132
				s-18.128-8.117-18.128-18.132c0-10.013,8.125-18.124,18.128-18.124c9.999,0,18.128,8.122,18.128,18.124H368.162z"/>
		</g>
		<g>
			<path fill="#66BBCE" stroke="#66BBCE" stroke-miterlimit="10" d="M238.489,1443.259h22.981c0,12.684-10.292,22.971-22.981,22.971
				c-12.684,0-22.977-10.286-22.977-22.971c0-12.681,10.292-22.982,22.977-22.982c12.689,0,22.981,10.301,22.981,22.982l0,0H238.489
				z"/>
		</g>
		<g>
			<path fill="#66BBCE" stroke="#66BBCE" stroke-miterlimit="10" d="M539.851,1709.072h17.936c0,9.906-8.03,17.936-17.936,17.936
				c-9.906,0-17.941-8.03-17.941-17.936c0-9.917,8.035-17.941,17.941-17.941c9.897,0,17.936,8.036,17.936,17.941H539.851z"/>
		</g>
		<g>
			<path fill="#66BBCE" stroke="#66BBCE" stroke-miterlimit="10" d="M90.947,1743.065h17.308c0,9.551-7.749,17.297-17.308,17.297
				c-13.632,0-23.56-15.739-12.644-30.012c14.267-10.822,29.952-0.899,29.952,12.715l0,0H90.947z"/>
		</g>
		<g>
			<path fill="#66BBCE" stroke="#66BBCE" stroke-miterlimit="10" d="M283.939,1748.16h17.23c0,9.508-7.71,17.225-17.23,17.225
				s-17.222-7.717-17.222-17.225c0-9.519,7.702-17.227,17.222-17.227s17.23,7.708,17.23,17.227l0,0H283.939z"/>
		</g>
		<g>
			<path fill="#66BBCE" stroke="#66BBCE" stroke-miterlimit="10" d="M434.891,1759.159h16.784c0,9.265-7.512,16.78-16.784,16.78
				c-9.263,0-16.782-7.515-16.782-16.78c0-9.274,7.519-16.786,16.782-16.786c9.272,0,16.784,7.512,16.784,16.786l0,0H434.891z"/>
		</g>
		<g>
			<path fill="#66BBCE" stroke="#66BBCE" stroke-miterlimit="10" d="M418.11,1799.384h15.425c0,8.528-6.905,15.426-15.425,15.426
				c-8.523,0-15.428-6.899-15.428-15.426c0-8.513,6.905-15.427,15.428-15.427c8.52,0,15.425,6.913,15.425,15.427l0,0H418.11z"/>
		</g>
		<g>
			<path fill="#66BBCE" stroke="#66BBCE" stroke-miterlimit="10" d="M124.442,1776.599h16.08c0,8.886-7.19,16.082-16.08,16.082
				c-8.881,0-16.075-7.196-16.075-16.082c0-8.88,7.194-16.073,16.075-16.073c8.89,0,16.08,7.193,16.08,16.073l0,0H124.442z"/>
		</g>
		<g>
			<path fill="#66BBCE" stroke="#66BBCE" stroke-miterlimit="10" d="M38.909,1901.029h12.648c0,6.981-5.666,12.642-12.648,12.642
				c-6.984,0-12.641-5.66-12.641-12.642c0-6.99,5.657-12.647,12.641-12.647c6.982,0,12.648,5.658,12.648,12.647l0,0H38.909z"/>
		</g>
		<g>
			<path fill="#66BBCE" stroke="#66BBCE" stroke-miterlimit="10" d="M274.262,1955.227h10.324c0,5.698-4.622,10.318-10.324,10.318
				c-5.699,0-10.317-4.619-10.317-10.318c0-5.693,4.618-10.323,10.317-10.323c5.702,0,10.324,4.631,10.324,10.323l0,0H274.262z"/>
		</g>
		<g>
			<path fill="#E2B600" stroke="#E2B600" stroke-miterlimit="10" d="M44.34,1384.092h26.278c0,14.505-11.767,26.277-26.278,26.277
				c-14.503,0-26.273-11.773-26.273-26.277c0-14.51,11.77-26.277,26.273-26.277c14.511,0,26.278,11.767,26.278,26.277l0,0H44.34z"/>
		</g>
		<g>
			<path fill="#66BBCE" stroke="#66BBCE" stroke-miterlimit="10" d="M271.942,1676.36h18.677c0,10.311-8.373,18.667-18.677,18.667
				c-10.308,0-18.675-8.356-18.675-18.667c0-10.323,8.367-18.685,18.675-18.685c10.304,0,18.677,8.371,18.677,18.685H271.942z"/>
		</g>
		<g>
			<path fill="#66BBCE" stroke="#66BBCE" stroke-miterlimit="10" d="M175.669,1745.778h17.168c0,9.486-7.682,17.178-17.168,17.178
				c-9.479,0-17.164-7.692-17.164-17.178c0-9.478,7.685-17.155,17.164-17.155c9.486,0,17.168,7.677,17.168,17.155l0,0H175.669z"/>
		</g>
		<g>
			<g>
				<path fill="#66BBCE" stroke="#66BBCE" stroke-miterlimit="10" d="M115.013,1664.532h18.889c0,10.434-8.454,18.885-18.889,18.885
					c-10.43,0-18.887-8.451-18.887-18.885c0-10.437,8.457-18.891,18.887-18.891c10.434,0,18.889,8.454,18.889,18.891l0,0H115.013z"
					/>
			</g>
			<g>
				<path fill="#E2B600" stroke="#E2B600" stroke-miterlimit="10" d="M115.013,1664.532h18.889c0,10.434-8.454,18.885-18.889,18.885
					c-10.43,0-18.887-8.451-18.887-18.885c0-10.437,8.457-18.891,18.887-18.891c10.434,0,18.889,8.454,18.889,18.891l0,0H115.013z"
					/>
			</g>
		</g>
		<g>
			<g>
				<path fill="#66BBCE" stroke="#66BBCE" stroke-miterlimit="10" d="M393.306,1960.261h9.746c0,5.381-4.356,9.744-9.746,9.744
					c-5.377,0-9.743-4.363-9.743-9.744c0-5.384,4.367-9.746,9.743-9.746c5.39,0,9.746,4.363,9.746,9.746l0,0H393.306z"/>
			</g>
			<g>
				<path fill="#E2B600" stroke="#E2B600" stroke-miterlimit="10" d="M393.306,1960.261h9.746c0,5.381-4.356,9.744-9.746,9.744
					c-5.377,0-9.743-4.363-9.743-9.744c0-5.384,4.367-9.746,9.743-9.746c5.39,0,9.746,4.363,9.746,9.746l0,0H393.306z"/>
			</g>
		</g>
		<g>
			<path fill="#E2B600" stroke="#E2B600" stroke-miterlimit="10" d="M124.443,2047.001h5.448c0,3.009-2.436,5.446-5.448,5.446
				c-3.008,0-5.446-2.437-5.446-5.446c0-3.012,2.439-5.448,5.446-5.448c3.012,0,5.448,2.437,5.448,5.448l0,0H124.443z"/>
		</g>
		<g>
			<path fill="#E2B600" stroke="#E2B600" stroke-miterlimit="10" d="M210.599,1810.573h15.262c0,8.423-6.837,15.259-15.262,15.259
				c-8.423,0-15.247-6.836-15.247-15.259c0-8.423,6.824-15.25,15.247-15.25c8.425,0,15.262,6.827,15.262,15.25l0,0H210.599z"/>
		</g>
		<g>
			<path fill="#66BBCE" stroke="#66BBCE" stroke-miterlimit="10" d="M447.6,855.245h44.349c0,24.492-19.851,44.341-44.349,44.341
				c-24.489,0-44.347-19.85-44.347-44.341c0-24.489,19.858-44.339,44.347-44.339c24.466,0,44.349,19.867,44.349,44.339H447.6z"/>
		</g>
		<g>
			<path fill="#66BBCE" stroke="#66BBCE" stroke-miterlimit="10" d="M336.691,860.743h44.182c0,24.393-19.779,44.176-44.182,44.176
				c-24.4,0-44.182-19.783-44.182-44.176c0-24.405,19.781-44.188,44.182-44.188c24.374,0,44.182,19.81,44.182,44.188H336.691z"/>
		</g>
		<g>
			<path fill="#66BBCE" stroke="#66BBCE" stroke-miterlimit="10" d="M333.227,1240.417h31.895c0,17.614-14.28,31.901-31.895,31.901
				c-17.608,0-31.882-14.287-31.882-31.901c0-17.611,14.274-31.892,31.882-31.892c17.6,0,31.895,14.299,31.895,31.892H333.227z"/>
		</g>
		<g>
			<path fill="#66BBCE" stroke="#66BBCE" stroke-miterlimit="10" d="M51.447,804.708h45.751c0,25.264-20.482,45.744-45.751,45.744
				c-25.264,0-45.737-20.48-45.737-45.744c0-25.264,20.472-45.742,45.737-45.742c25.269,0,45.751,20.478,45.751,45.742l-0.015-0.803
				L51.447,804.708z"/>
		</g>
		<g>
			<path fill="#E2B600" stroke="#E2B600" stroke-miterlimit="10" d="M470.501,1664.756h18.803c0,11.058-9.541,19.89-20.855,18.694
				c-8.619-0.911-15.612-7.84-16.612-16.449c-1.321-11.369,7.543-21.039,18.664-21.039c10.392,0,18.803,8.426,18.803,18.794l0,0
				H470.501z"/>
		</g>
		<g>
			<path fill="#E2B600" stroke="#E2B600" stroke-miterlimit="10" d="M203.153,1853.234h14.348c0,7.916-6.426,14.342-14.348,14.342
				c-7.917,0-14.339-6.427-14.339-14.342c0-7.927,6.422-14.345,14.339-14.345c7.922,0,14.348,6.418,14.348,14.345l0,0H203.153z"/>
		</g>
		<g>
			<path fill="#E2B600" stroke="#E2B600" stroke-miterlimit="10" d="M131.961,1098.756h37.078c0,20.477-16.604,37.06-37.078,37.06
				c-20.469,0-37.069-16.584-37.069-37.06c0-20.471,16.599-37.072,37.069-37.072c20.454,0,37.078,16.621,37.078,37.072H131.961z"/>
		</g>
		<g>
			<path fill="#E2B600" stroke="#E2B600" stroke-miterlimit="10" d="M158.185,1874.44h13.343c0,7.853-6.793,14.135-14.835,13.262
				c-6.112-0.663-11.071-5.606-11.759-11.715c-0.907-8.058,5.378-14.885,13.25-14.885c7.373,0,13.343,5.972,13.343,13.338l0,0
				H158.185z"/>
		</g>
		<g>
			<path fill="#66BBCE" stroke="#66BBCE" stroke-miterlimit="10" d="M263.941,92.531h92.038c0,50.832-41.207,92.039-92.038,92.039
				c-50.827,0-92.031-41.207-92.031-92.039c0-50.827,41.203-92.031,92.031-92.031c50.83,0,92.038,41.203,92.038,92.031l0,0H263.941z
				"/>
		</g>
		<g>
			<path fill="#66BBCE" stroke="#66BBCE" stroke-miterlimit="10" d="M86.833,197.19h86.345c0,47.685-38.654,86.339-86.345,86.339
				c-47.686,0-86.333-38.654-86.333-86.339c0-47.682,38.647-86.338,86.333-86.338c47.69,0,86.345,38.656,86.345,86.338l0,0H86.833z"
				/>
		</g>
		<g>
			<path fill="#66BBCE" stroke="#66BBCE" stroke-miterlimit="10" d="M342.951,327.135h79.074c0,43.67-35.399,79.069-79.074,79.069
				c-43.671,0-79.063-35.399-79.063-79.069c0-43.666,35.392-79.068,79.063-79.068c43.674,0,79.074,35.401,79.074,79.068l0,0H342.951
				z"/>
		</g>
		<g>
			<path fill="#66BBCE" stroke="#66BBCE" stroke-miterlimit="10" d="M461.456,182.285h87.526c0,48.342-39.187,87.528-87.526,87.528
				c-48.336,0-87.52-39.186-87.52-87.528c0-48.339,39.184-87.523,87.52-87.523c48.339,0,87.526,39.185,87.526,87.523l0,0H461.456z"
				/>
		</g>
		<g>
			<path fill="#66BBCE" stroke="#66BBCE" stroke-miterlimit="10" d="M482.16,534.532h66.822c0,36.906-29.915,66.819-66.822,66.819
				c-36.911,0-66.826-29.913-66.826-66.819c0-36.901,29.915-66.824,66.826-66.824c36.906,0,66.822,29.923,66.822,66.824l0,0H482.16z
				"/>
		</g>
	</g>
	
		<line fill="none" stroke="#87868A" stroke-width="0.7" stroke-miterlimit="3.8636" stroke-dasharray="4,4" x1="-32.54" y1="663.174" x2="617.559" y2="663.174"/>
	
		<line fill="none" stroke="#87868A" stroke-width="0.7" stroke-miterlimit="3.8636" stroke-dasharray="4,4" x1="-32.54" y1="695.348" x2="617.559" y2="695.348"/>
	<path fill="none" d="M220.084,1100.44"/>
	<g>
		<path fill="none" stroke="#323232" stroke-miterlimit="10" d="M326.909,1945.572c1.309-1.549-8.169,30.229,44.086,25.13"/>
		<g>
			<polygon fill="#323232" points="376.885,1970.005 368.919,1974.252 370.544,1970.653 368.224,1967.459 			"/>
		</g>
	</g>
</g>
<style type="text/css">
#g-sintit3-Mesa_de_trabajo_3-img rect, #g-sintit3-Mesa_de_trabajo_3-img circle, #g-sintit3-Mesa_de_trabajo_3-img path, #g-sintit3-Mesa_de_trabajo_3-img line, #g-sintit3-Mesa_de_trabajo_3-img polyline { vector-effect: non-scaling-stroke; }
</style>
</svg>

