<?xml version="1.0" encoding="utf-8"?>
<!-- Generator: Adobe Illustrator 23.0.3, SVG Export Plug-In . SVG Version: 6.00 Build 0)  -->
<svg version="1.2" baseProfile="tiny" id="g-sintit3-Mesa_de_trabajo_1-img" xmlns="http://www.w3.org/2000/svg" xmlns:xlink="http://www.w3.org/1999/xlink"
	 x="0px" y="0px" viewBox="0 0 588.805 2451.031" xml:space="preserve">
<g>
	<g>
		<g>
			
				<line fill="none" stroke="#87868A" stroke-width="0.7" stroke-miterlimit="3.8636" x1="4.082" y1="1483.206" x2="654.237" y2="1483.206"/>
			<path fill="none" stroke="#87868A" stroke-width="0.4" stroke-miterlimit="3.8636" d="M654.237,1463.956"/>
			
				<line fill="none" stroke="#87868A" stroke-width="0.7" stroke-miterlimit="3.8636" x1="4.082" y1="1444.7" x2="588.805" y2="1444.7"/>
			<path fill="none" stroke="#87868A" stroke-width="0.4" stroke-miterlimit="3.8636" d="M588.805,1425.45"/>
			
				<line fill="none" stroke="#87868A" stroke-width="0.7" stroke-miterlimit="3.8636" x1="4.082" y1="1406.195" x2="588.805" y2="1406.195"/>
			<path fill="none" stroke="#87868A" stroke-width="0.4" stroke-miterlimit="3.8636" d="M588.805,1386.939"/>
			
				<line fill="none" stroke="#87868A" stroke-width="0.7" stroke-miterlimit="3.8636" x1="4.082" y1="1367.688" x2="588.805" y2="1367.688"/>
			<path fill="none" stroke="#87868A" stroke-width="0.4" stroke-miterlimit="3.8636" d="M588.805,1348.435"/>
			
				<line fill="none" stroke="#87868A" stroke-width="0.7" stroke-miterlimit="3.8636" x1="4.132" y1="1329.182" x2="588.805" y2="1329.182"/>
			<path fill="none" stroke="#87868A" stroke-width="0.4" stroke-miterlimit="3.8636" d="M588.805,1309.929"/>
			
				<line fill="none" stroke="#87868A" stroke-width="0.7" stroke-miterlimit="3.8636" x1="4.082" y1="1290.676" x2="588.805" y2="1290.676"/>
			<path fill="none" stroke="#87868A" stroke-width="0.4" stroke-miterlimit="3.8636" d="M588.805,1271.426"/>
			
				<line fill="none" stroke="#87868A" stroke-width="0.7" stroke-miterlimit="3.8636" x1="4.082" y1="1252.17" x2="588.805" y2="1252.17"/>
			<path fill="none" stroke="#87868A" stroke-width="0.4" stroke-miterlimit="3.8636" d="M588.805,1232.917"/>
			
				<line fill="none" stroke="#87868A" stroke-width="0.7" stroke-miterlimit="3.8636" x1="4.082" y1="1213.665" x2="588.805" y2="1213.665"/>
			<path fill="none" stroke="#87868A" stroke-width="0.4" stroke-miterlimit="3.8636" d="M588.805,1194.409"/>
			
				<line fill="none" stroke="#87868A" stroke-width="0.7" stroke-miterlimit="3.8636" x1="4.082" y1="1175.156" x2="588.805" y2="1175.156"/>
			<path fill="none" stroke="#87868A" stroke-width="0.4" stroke-miterlimit="3.8636" d="M588.805,1155.905"/>
			
				<line fill="none" stroke="#87868A" stroke-width="0.7" stroke-miterlimit="3.8636" x1="4.132" y1="1136.652" x2="588.805" y2="1136.652"/>
			<path fill="none" stroke="#87868A" stroke-width="0.4" stroke-miterlimit="3.8636" d="M588.805,1117.4"/>
			<path fill="none" stroke="#87868A" stroke-width="0.4" stroke-miterlimit="3.8636" stroke-dasharray="1.8,1.8" d="M0.149,1117.4"
				/>
			<g>
				
					<line fill="none" stroke="#87868A" stroke-width="0.7" stroke-miterlimit="3.8636" x1="4.132" y1="1097.54" x2="588.805" y2="1097.54"/>
				<path fill="none" stroke="#87868A" stroke-width="0.4" stroke-miterlimit="3.8636" stroke-dasharray="1.8,1.8" d="
					M592.903,1079.602"/>
				<path fill="none" stroke="#87868A" stroke-width="0.4" stroke-miterlimit="3.8636" stroke-dasharray="1.8,1.8" d="
					M-0.077,1078.285"/>
				
					<line fill="none" stroke="#87868A" stroke-width="0.7" stroke-miterlimit="3.8636" x1="4.082" y1="1059.034" x2="588.805" y2="1059.034"/>
				<path fill="none" stroke="#87868A" stroke-width="0.4" stroke-miterlimit="3.8636" d="M588.805,1039.78"/>
				<path fill="none" stroke="#87868A" stroke-width="0.4" stroke-miterlimit="3.8636" stroke-dasharray="1.8,1.8" d="
					M-0.077,1039.78"/>
				
					<line fill="none" stroke="#87868A" stroke-width="0.7" stroke-miterlimit="3.8636" x1="4.132" y1="1020.528" x2="588.805" y2="1020.528"/>
				<path fill="none" stroke="#87868A" stroke-width="0.4" stroke-miterlimit="3.8636" d="M588.805,1001.275"/>
				<path fill="none" stroke="#87868A" stroke-width="0.4" stroke-miterlimit="3.8636" stroke-dasharray="1.8,1.8" d="
					M-0.077,1001.275"/>
				
					<line fill="none" stroke="#87868A" stroke-width="0.7" stroke-miterlimit="3.8636" x1="4.132" y1="982.019" x2="588.805" y2="982.019"/>
				<path fill="none" stroke="#87868A" stroke-width="0.7" stroke-miterlimit="3.8636" d="M588.805,962.767"/>
				<path fill="none" stroke="#87868A" stroke-width="0.7" stroke-miterlimit="3.8636" d="M-0.077,962.767"/>
			</g>
			<g>
				
					<line fill="none" stroke="#87868A" stroke-width="0.7" stroke-miterlimit="3.8636" x1="-0.077" y1="2277.131" x2="654.237" y2="2277.131"/>
				<path fill="none" stroke="#87868A" stroke-width="0.4" stroke-miterlimit="3.8636" stroke-dasharray="1.8,1.8" d="
					M654.237,2225.029"/>
				
					<line fill="none" stroke="#87868A" stroke-width="0.7" stroke-miterlimit="3.8636" x1="4.082" y1="2172.948" x2="654.237" y2="2172.948"/>
				<path fill="none" stroke="#87868A" stroke-width="0.4" stroke-miterlimit="3.8636" stroke-dasharray="1.8,1.8" d="
					M654.237,2120.85"/>
				
					<line fill="none" stroke="#87868A" stroke-width="0.7" stroke-miterlimit="3.8636" x1="4.082" y1="2068.76" x2="654.237" y2="2068.76"/>
				<path fill="none" stroke="#87868A" stroke-width="0.4" stroke-miterlimit="3.8636" stroke-dasharray="1.8,1.8" d="
					M654.237,2016.663"/>
				
					<line fill="none" stroke="#87868A" stroke-width="0.7" stroke-miterlimit="3.8636" x1="4.082" y1="1964.562" x2="654.237" y2="1964.562"/>
				<path fill="none" stroke="#87868A" stroke-width="0.4" stroke-miterlimit="3.8636" stroke-dasharray="1.8,1.8" d="
					M654.237,1912.468"/>
				
					<line fill="none" stroke="#87868A" stroke-width="0.7" stroke-miterlimit="3.8636" x1="4.082" y1="1860.378" x2="654.237" y2="1860.378"/>
				<path fill="none" stroke="#87868A" stroke-width="0.4" stroke-miterlimit="3.8636" d="M654.237,1773.156"/>
				
					<line fill="none" stroke="#87868A" stroke-width="0.7" stroke-miterlimit="3.8636" x1="4.138" y1="1676.647" x2="654.237" y2="1676.647"/>
				<path fill="none" stroke="#87868A" stroke-width="0.7" stroke-miterlimit="3.8636" d="M654.237,1745.115"/>
				<path fill="none" stroke="#87868A" stroke-width="0.7" stroke-miterlimit="3.8636" d="M4.138,1745.115"/>
				<path fill="none" stroke="#87868A" stroke-width="0.4" stroke-miterlimit="3.8636" d="M654.237,1657.394"/>
				
					<line fill="none" stroke="#87868A" stroke-width="0.7" stroke-miterlimit="3.8636" x1="4.082" y1="1638.14" x2="654.237" y2="1638.14"/>
				
					<line fill="none" stroke="#87868A" stroke-width="0.7" stroke-miterlimit="3.8636" stroke-dasharray="4,4" x1="4.138" y1="1750.726" x2="654.237" y2="1750.726"/>
				
					<line fill="none" stroke="#87868A" stroke-width="0.7" stroke-miterlimit="3.8636" stroke-dasharray="4,4" x1="4.11" y1="1773.156" x2="654.209" y2="1773.156"/>
				<path fill="none" stroke="#87868A" stroke-width="0.7" stroke-miterlimit="3.8636" d="M654.237,1676.352"/>
				<path fill="none" stroke="#87868A" stroke-width="0.7" stroke-miterlimit="3.8636" d="M4.082,1676.352"/>
				<path fill="none" stroke="#87868A" stroke-width="0.4" stroke-miterlimit="3.8636" d="M654.237,1618.89"/>
				
					<line fill="none" stroke="#87868A" stroke-width="0.7" stroke-miterlimit="3.8636" x1="4.082" y1="1599.634" x2="654.237" y2="1599.634"/>
				<path fill="none" stroke="#87868A" stroke-width="0.4" stroke-miterlimit="3.8636" d="M654.237,1580.381"/>
				
					<line fill="none" stroke="#87868A" stroke-width="0.7" stroke-miterlimit="3.8636" x1="4.082" y1="1561.129" x2="654.237" y2="1561.129"/>
				<path fill="none" stroke="#87868A" stroke-width="0.4" stroke-miterlimit="3.8636" d="M654.237,1541.875"/>
				
					<line fill="none" stroke="#87868A" stroke-width="0.7" stroke-miterlimit="3.8636" x1="4.082" y1="1522.619" x2="654.237" y2="1522.619"/>
				<path fill="none" stroke="#87868A" stroke-width="0.4" stroke-miterlimit="3.8636" d="M654.237,1503.369"/>
			</g>
		</g>
		<g>
			<path fill="none" stroke="#87868A" stroke-width="0.7" stroke-miterlimit="3.8636" d="M588.508,799.791"/>
			<path fill="none" stroke="#87868A" stroke-width="0.7" stroke-miterlimit="3.8636" d="M26.695,799.791"/>
			<path fill="none" stroke="#87868A" stroke-width="0.7" stroke-miterlimit="3.8636" d="M588.508,794.595"/>
			<path fill="none" stroke="#87868A" stroke-width="0.7" stroke-miterlimit="3.8636" d="M6.19,794.595"/>
			<path fill="none" stroke="#87868A" stroke-width="0.7" stroke-miterlimit="3.8636" d="M588.508,789.398"/>
			<path fill="none" stroke="#87868A" stroke-width="0.7" stroke-miterlimit="3.8636" d="M6.103,789.398"/>
			<path fill="none" stroke="#87868A" stroke-width="0.7" stroke-miterlimit="3.8636" d="M588.508,784.202"/>
			<path fill="none" stroke="#87868A" stroke-width="0.7" stroke-miterlimit="3.8636" d="M6.103,784.202"/>
			<path fill="none" stroke="#87868A" stroke-width="0.7" stroke-miterlimit="3.8636" d="M588.508,779.007"/>
			<path fill="none" stroke="#87868A" stroke-width="0.7" stroke-miterlimit="3.8636" d="M6.103,779.007"/>
			<path fill="none" stroke="#87868A" stroke-width="0.7" stroke-miterlimit="3.8636" d="M588.508,773.809"/>
			<path fill="none" stroke="#87868A" stroke-width="0.7" stroke-miterlimit="3.8636" d="M6.103,773.809"/>
			<path fill="none" stroke="#87868A" stroke-width="0.7" stroke-miterlimit="3.8636" d="M588.508,768.614"/>
			<path fill="none" stroke="#87868A" stroke-width="0.7" stroke-miterlimit="3.8636" d="M6.103,768.614"/>
			<path fill="none" stroke="#87868A" stroke-width="0.4" stroke-miterlimit="3.8636" d="M588.508,763.418"/>
			<path fill="none" stroke="#87868A" stroke-width="0.4" stroke-miterlimit="3.8636" stroke-dasharray="1.8,1.8" d="
				M588.508,758.22"/>
			<path fill="none" stroke="#87868A" stroke-width="0.4" stroke-miterlimit="3.8636" stroke-dasharray="1.8,1.8" d="
				M588.508,753.025"/>
			<path fill="none" stroke="#87868A" stroke-width="0.4" stroke-miterlimit="3.8636" stroke-dasharray="1.8,1.8" d="
				M588.508,747.828"/>
			<path fill="none" stroke="#87868A" stroke-width="0.4" stroke-miterlimit="3.8636" stroke-dasharray="1.8,1.8" d="
				M588.508,742.631"/>
			<path fill="none" stroke="#87868A" stroke-width="0.4" stroke-miterlimit="3.8636" stroke-dasharray="1.8,1.8" d="
				M588.508,737.436"/>
			<path fill="none" stroke="#87868A" stroke-width="0.4" stroke-miterlimit="3.8636" stroke-dasharray="1.8,1.8" d="
				M588.508,732.239"/>
			<path fill="none" stroke="#87868A" stroke-width="0.4" stroke-miterlimit="3.8636" stroke-dasharray="1.8,1.8" d="
				M588.508,727.043"/>
			<g>
				<path fill="none" stroke="#87868A" stroke-width="0.4" stroke-miterlimit="3.8636" stroke-dasharray="1.8,1.8" d="
					M588.508,721.846"/>
				<path fill="none" stroke="#87868A" stroke-width="0.4" stroke-miterlimit="3.8636" stroke-dasharray="1.8,1.8" d="
					M-0.077,721.846"/>
				
					<line fill="none" stroke="#87868A" stroke-width="0.7" stroke-miterlimit="3.8636" x1="5.834" y1="716.65" x2="588.508" y2="716.65"/>
				<path fill="none" stroke="#87868A" stroke-width="0.4" stroke-miterlimit="3.8636" stroke-dasharray="1.8,1.8" d="
					M588.508,711.454"/>
				<path fill="none" stroke="#87868A" stroke-width="0.4" stroke-miterlimit="3.8636" stroke-dasharray="1.8,1.8" d="
					M588.508,706.257"/>
				<path fill="none" stroke="#87868A" stroke-width="0.4" stroke-miterlimit="3.8636" stroke-dasharray="1.8,1.8" d="
					M588.508,701.061"/>
				<path fill="none" stroke="#87868A" stroke-width="0.4" stroke-miterlimit="3.8636" d="M588.508,695.864"/>
				<path fill="none" stroke="#87868A" stroke-width="0.4" stroke-miterlimit="3.8636" d="M588.508,690.668"/>
				<path fill="none" stroke="#87868A" stroke-width="0.4" stroke-miterlimit="3.8636" d="M588.508,685.472"/>
				<path fill="none" stroke="#87868A" stroke-width="0.4" stroke-miterlimit="3.8636" d="M588.508,680.276"/>
				<path fill="none" stroke="#87868A" stroke-width="0.4" stroke-miterlimit="3.8636" d="M588.508,675.08"/>
				<path fill="none" stroke="#87868A" stroke-width="0.4" stroke-miterlimit="3.8636" d="M588.508,669.883"/>
				<path fill="none" stroke="#87868A" stroke-width="0.4" stroke-miterlimit="3.8636" stroke-dasharray="1.8,1.8" d="
					M-0.077,669.883"/>
				<path fill="none" stroke="#87868A" stroke-width="0.4" stroke-miterlimit="3.8636" d="M588.508,664.687"/>
				<path fill="none" stroke="#87868A" stroke-width="0.4" stroke-miterlimit="3.8636" d="M588.508,659.491"/>
				<path fill="none" stroke="#87868A" stroke-width="0.4" stroke-miterlimit="3.8636" stroke-dasharray="1.8,1.8" d="
					M-0.077,659.491"/>
				<path fill="none" stroke="#87868A" stroke-width="0.4" stroke-miterlimit="3.8636" d="M588.508,654.294"/>
				<path fill="none" stroke="#87868A" stroke-width="0.4" stroke-miterlimit="3.8636" stroke-dasharray="1.8,1.8" d="
					M-0.077,654.294"/>
				<path fill="none" stroke="#87868A" stroke-width="0.4" stroke-miterlimit="3.8636" d="M588.508,649.098"/>
				<path fill="none" stroke="#87868A" stroke-width="0.4" stroke-miterlimit="3.8636" d="M588.508,643.902"/>
				<path fill="none" stroke="#87868A" stroke-width="0.4" stroke-miterlimit="3.8636" d="M588.508,638.706"/>
				<path fill="none" stroke="#87868A" stroke-width="0.4" stroke-miterlimit="3.8636" d="M588.508,633.509"/>
				<path fill="none" stroke="#87868A" stroke-width="0.4" stroke-miterlimit="3.8636" d="M588.508,628.313"/>
				<path fill="none" stroke="#87868A" stroke-width="0.4" stroke-miterlimit="3.8636" d="M588.508,623.117"/>
			</g>
			<g>
				<path fill="none" stroke="#87868A" stroke-width="0.4" stroke-miterlimit="3.8636" d="M588.508,513.584"/>
				<path fill="none" stroke="#87868A" stroke-width="0.4" stroke-miterlimit="3.8636" stroke-dasharray="1.8,1.8" d="
					M-0.077,513.584"/>
				
					<line fill="none" stroke="#87868A" stroke-width="0.7" stroke-miterlimit="3.8636" x1="5.834" y1="508.388" x2="588.508" y2="508.388"/>
				<path fill="none" stroke="#87868A" stroke-width="0.4" stroke-miterlimit="3.8636" d="M588.508,503.191"/>
				<path fill="none" stroke="#87868A" stroke-width="0.4" stroke-miterlimit="3.8636" stroke-dasharray="1.8,1.8" d="
					M-0.077,503.191"/>
				<path fill="none" stroke="#87868A" stroke-width="0.4" stroke-miterlimit="3.8636" d="M588.508,497.995"/>
				<path fill="none" stroke="#87868A" stroke-width="0.4" stroke-miterlimit="3.8636" stroke-dasharray="1.8,1.8" d="
					M-0.077,497.995"/>
				<path fill="none" stroke="#87868A" stroke-width="0.4" stroke-miterlimit="3.8636" d="M588.508,492.798"/>
				<path fill="none" stroke="#87868A" stroke-width="0.4" stroke-miterlimit="3.8636" stroke-dasharray="1.8,1.8" d="
					M-0.077,492.798"/>
				<path fill="none" stroke="#87868A" stroke-width="0.4" stroke-miterlimit="3.8636" d="M588.508,487.602"/>
				<path fill="none" stroke="#87868A" stroke-width="0.4" stroke-miterlimit="3.8636" stroke-dasharray="1.8,1.8" d="
					M-0.077,487.602"/>
				<path fill="none" stroke="#87868A" stroke-width="0.4" stroke-miterlimit="3.8636" d="M588.508,482.406"/>
				<path fill="none" stroke="#87868A" stroke-width="0.4" stroke-miterlimit="3.8636" d="M588.508,477.209"/>
				<path fill="none" stroke="#87868A" stroke-width="0.4" stroke-miterlimit="3.8636" d="M588.508,472.013"/>
				<path fill="none" stroke="#87868A" stroke-width="0.4" stroke-miterlimit="3.8636" d="M588.508,466.818"/>
				<path fill="none" stroke="#87868A" stroke-width="0.4" stroke-miterlimit="3.8636" d="M588.508,461.62"/>
				<path fill="none" stroke="#87868A" stroke-width="0.4" stroke-miterlimit="3.8636" d="M588.508,456.424"/>
				<path fill="none" stroke="#87868A" stroke-width="0.4" stroke-miterlimit="3.8636" d="M588.508,451.228"/>
				<path fill="none" stroke="#87868A" stroke-width="0.4" stroke-miterlimit="3.8636" d="M588.508,446.032"/>
				<path fill="none" stroke="#87868A" stroke-width="0.4" stroke-miterlimit="3.8636" d="M588.508,440.835"/>
				<path fill="none" stroke="#87868A" stroke-width="0.4" stroke-miterlimit="3.8636" d="M588.508,435.64"/>
				<path fill="none" stroke="#87868A" stroke-width="0.4" stroke-miterlimit="3.8636" d="M588.508,430.443"/>
				<path fill="none" stroke="#87868A" stroke-width="0.4" stroke-miterlimit="3.8636" d="M588.508,425.247"/>
				<path fill="none" stroke="#87868A" stroke-width="0.4" stroke-miterlimit="3.8636" d="M588.508,420.051"/>
				<path fill="none" stroke="#87868A" stroke-width="0.4" stroke-miterlimit="3.8636" d="M588.508,414.854"/>
				<path fill="none" stroke="#87868A" stroke-width="0.4" stroke-miterlimit="3.8636" stroke-dasharray="1.8,1.8" d="
					M-0.077,414.854"/>
			</g>
			<g>
				<path fill="none" stroke="#87868A" stroke-width="0.4" stroke-miterlimit="3.8636" d="M588.508,305.894"/>
				<path fill="none" stroke="#87868A" stroke-width="0.4" stroke-miterlimit="3.8636" stroke-dasharray="1.8,1.8" d="
					M-0.077,305.894"/>
				
					<line fill="none" stroke="#87868A" stroke-width="0.7" stroke-miterlimit="3.8636" x1="5.834" y1="300.697" x2="588.508" y2="300.697"/>
				<path fill="none" stroke="#87868A" stroke-width="0.4" stroke-miterlimit="3.8636" d="M588.508,295.502"/>
				<path fill="none" stroke="#87868A" stroke-width="0.4" stroke-miterlimit="3.8636" stroke-dasharray="1.8,1.8" d="
					M-0.077,295.502"/>
				<path fill="none" stroke="#87868A" stroke-width="0.4" stroke-miterlimit="3.8636" d="M588.508,290.305"/>
				<path fill="none" stroke="#87868A" stroke-width="0.4" stroke-miterlimit="3.8636" stroke-dasharray="1.8,1.8" d="
					M-0.077,290.305"/>
				<path fill="none" stroke="#87868A" stroke-width="0.4" stroke-miterlimit="3.8636" d="M588.508,285.108"/>
				<path fill="none" stroke="#87868A" stroke-width="0.4" stroke-miterlimit="3.8636" stroke-dasharray="1.8,1.8" d="
					M-0.077,285.108"/>
				<path fill="none" stroke="#87868A" stroke-width="0.4" stroke-miterlimit="3.8636" d="M588.508,279.913"/>
				<path fill="none" stroke="#87868A" stroke-width="0.4" stroke-miterlimit="3.8636" stroke-dasharray="1.8,1.8" d="
					M-0.077,279.913"/>
				<path fill="none" stroke="#87868A" stroke-width="0.4" stroke-miterlimit="3.8636" d="M588.508,274.716"/>
				<path fill="none" stroke="#87868A" stroke-width="0.4" stroke-miterlimit="3.8636" stroke-dasharray="1.8,1.8" d="
					M-0.077,274.716"/>
				<path fill="none" stroke="#87868A" stroke-width="0.4" stroke-miterlimit="3.8636" d="M588.508,269.519"/>
				<path fill="none" stroke="#87868A" stroke-width="0.4" stroke-miterlimit="3.8636" d="M588.508,264.324"/>
				<path fill="none" stroke="#87868A" stroke-width="0.4" stroke-miterlimit="3.8636" d="M588.508,259.128"/>
				<path fill="none" stroke="#87868A" stroke-width="0.4" stroke-miterlimit="3.8636" d="M588.508,253.93"/>
				<path fill="none" stroke="#87868A" stroke-width="0.4" stroke-miterlimit="3.8636" d="M588.508,248.735"/>
				<path fill="none" stroke="#87868A" stroke-width="0.4" stroke-miterlimit="3.8636" d="M588.508,243.539"/>
				<path fill="none" stroke="#87868A" stroke-width="0.4" stroke-miterlimit="3.8636" d="M588.508,238.342"/>
				<path fill="none" stroke="#87868A" stroke-width="0.4" stroke-miterlimit="3.8636" d="M588.508,233.146"/>
				<path fill="none" stroke="#87868A" stroke-width="0.4" stroke-miterlimit="3.8636" d="M588.508,227.95"/>
				<path fill="none" stroke="#87868A" stroke-width="0.4" stroke-miterlimit="3.8636" d="M588.508,222.753"/>
				<path fill="none" stroke="#87868A" stroke-width="0.4" stroke-miterlimit="3.8636" d="M588.508,217.557"/>
				<path fill="none" stroke="#87868A" stroke-width="0.4" stroke-miterlimit="3.8636" d="M588.508,212.36"/>
				<path fill="none" stroke="#87868A" stroke-width="0.4" stroke-miterlimit="3.8636" d="M588.508,207.164"/>
				<path fill="none" stroke="#87868A" stroke-width="0.4" stroke-miterlimit="3.8636" stroke-dasharray="1.8,1.8" d="
					M-0.077,207.164"/>
				<path fill="none" stroke="#87868A" stroke-width="0.4" stroke-miterlimit="3.8636" d="M588.508,201.928"/>
				<path fill="none" stroke="#87868A" stroke-width="0.4" stroke-miterlimit="3.8636" stroke-dasharray="1.8,1.8" d="
					M-0.077,201.928"/>
				
					<line fill="none" stroke="#87868A" stroke-width="0.7" stroke-miterlimit="3.8636" x1="5.834" y1="196.725" x2="588.508" y2="196.725"/>
			</g>
			<g>
				<path fill="none" stroke="#87868A" stroke-width="0.4" stroke-miterlimit="3.8636" d="M588.508,191.449"/>
				<path fill="none" stroke="#87868A" stroke-width="0.4" stroke-miterlimit="3.8636" stroke-dasharray="1.8,1.8" d="
					M-0.077,191.449"/>
				<path fill="none" stroke="#87868A" stroke-width="0.4" stroke-miterlimit="3.8636" d="M588.508,186.252"/>
				<path fill="none" stroke="#87868A" stroke-width="0.4" stroke-miterlimit="3.8636" stroke-dasharray="1.8,1.8" d="
					M-0.077,186.252"/>
				<path fill="none" stroke="#87868A" stroke-width="0.4" stroke-miterlimit="3.8636" d="M588.508,181.055"/>
				<path fill="none" stroke="#87868A" stroke-width="0.4" stroke-miterlimit="3.8636" stroke-dasharray="1.8,1.8" d="
					M-0.077,181.055"/>
				<path fill="none" stroke="#87868A" stroke-width="0.4" stroke-miterlimit="3.8636" d="M588.508,175.86"/>
				<path fill="none" stroke="#87868A" stroke-width="0.4" stroke-miterlimit="3.8636" stroke-dasharray="1.8,1.8" d="
					M-0.077,175.86"/>
				<path fill="none" stroke="#87868A" stroke-width="0.4" stroke-miterlimit="3.8636" d="M588.508,170.663"/>
				<path fill="none" stroke="#87868A" stroke-width="0.4" stroke-miterlimit="3.8636" stroke-dasharray="1.8,1.8" d="
					M-0.077,170.663"/>
				<path fill="none" stroke="#87868A" stroke-width="0.4" stroke-miterlimit="3.8636" d="M588.508,165.466"/>
				<path fill="none" stroke="#87868A" stroke-width="0.4" stroke-miterlimit="3.8636" stroke-dasharray="1.8,1.8" d="
					M-0.077,165.466"/>
				<path fill="none" stroke="#87868A" stroke-width="0.4" stroke-miterlimit="3.8636" d="M588.508,160.271"/>
				<path fill="none" stroke="#87868A" stroke-width="0.4" stroke-miterlimit="3.8636" stroke-dasharray="1.8,1.8" d="
					M-0.077,160.271"/>
				<path fill="none" stroke="#87868A" stroke-width="0.4" stroke-miterlimit="3.8636" d="M654.237,155.075"/>
				<path fill="none" stroke="#87868A" stroke-width="0.4" stroke-miterlimit="3.8636" stroke-dasharray="1.8,1.8" d="
					M-0.077,155.075"/>
			</g>
			<path fill="none" stroke="#87868A" stroke-width="0.4" stroke-miterlimit="3.8636" d="M588.508,617.92"/>
			<path fill="none" stroke="#87868A" stroke-width="0.4" stroke-miterlimit="3.8636" stroke-dasharray="1.8,1.8" d="M-0.077,617.92
				"/>
			
				<line fill="none" stroke="#87868A" stroke-width="0.7" stroke-miterlimit="3.8636" x1="7.993" y1="612.724" x2="588.508" y2="612.724"/>
			<path fill="none" stroke="#87868A" stroke-width="0.4" stroke-miterlimit="3.8636" d="M588.508,607.527"/>
			<path fill="none" stroke="#87868A" stroke-width="0.4" stroke-miterlimit="3.8636" stroke-dasharray="1.8,1.8" d="
				M-0.077,607.527"/>
			<path fill="none" stroke="#87868A" stroke-width="0.4" stroke-miterlimit="3.8636" d="M588.508,602.331"/>
			<path fill="none" stroke="#87868A" stroke-width="0.4" stroke-miterlimit="3.8636" d="M588.508,597.135"/>
			<path fill="none" stroke="#87868A" stroke-width="0.4" stroke-miterlimit="3.8636" d="M588.508,591.938"/>
			<path fill="none" stroke="#87868A" stroke-width="0.4" stroke-miterlimit="3.8636" d="M588.508,586.742"/>
			<path fill="none" stroke="#87868A" stroke-width="0.4" stroke-miterlimit="3.8636" d="M588.508,581.546"/>
			<path fill="none" stroke="#87868A" stroke-width="0.4" stroke-miterlimit="3.8636" d="M588.508,576.349"/>
			<path fill="none" stroke="#87868A" stroke-width="0.4" stroke-miterlimit="3.8636" d="M588.508,571.154"/>
			<path fill="none" stroke="#87868A" stroke-width="0.4" stroke-miterlimit="3.8636" d="M588.508,565.957"/>
			<path fill="none" stroke="#87868A" stroke-width="0.4" stroke-miterlimit="3.8636" stroke-dasharray="1.8,1.8" d="
				M-0.077,565.957"/>
			<path fill="none" stroke="#87868A" stroke-width="0.4" stroke-miterlimit="3.8636" d="M588.508,560.76"/>
			<path fill="none" stroke="#87868A" stroke-width="0.4" stroke-miterlimit="3.8636" d="M588.508,555.564"/>
			<path fill="none" stroke="#87868A" stroke-width="0.4" stroke-miterlimit="3.8636" d="M588.508,550.369"/>
			<path fill="none" stroke="#87868A" stroke-width="0.4" stroke-miterlimit="3.8636" d="M588.508,545.172"/>
			<path fill="none" stroke="#87868A" stroke-width="0.4" stroke-miterlimit="3.8636" d="M588.508,539.975"/>
			<path fill="none" stroke="#87868A" stroke-width="0.4" stroke-miterlimit="3.8636" d="M588.508,534.78"/>
			<path fill="none" stroke="#87868A" stroke-width="0.4" stroke-miterlimit="3.8636" d="M588.508,529.584"/>
			<path fill="none" stroke="#87868A" stroke-width="0.4" stroke-miterlimit="3.8636" d="M588.508,524.386"/>
			<path fill="none" stroke="#87868A" stroke-width="0.4" stroke-miterlimit="3.8636" stroke-dasharray="1.8,1.8" d="
				M-0.077,524.386"/>
			<path fill="none" stroke="#87868A" stroke-width="0.4" stroke-miterlimit="3.8636" d="M588.508,519.191"/>
			<path fill="none" stroke="#87868A" stroke-width="0.4" stroke-miterlimit="3.8636" stroke-dasharray="1.8,1.8" d="
				M-0.077,519.191"/>
			<path fill="none" stroke="#87868A" stroke-width="0.4" stroke-miterlimit="3.8636" d="M588.508,410.068"/>
			<path fill="none" stroke="#87868A" stroke-width="0.4" stroke-miterlimit="3.8636" stroke-dasharray="1.8,1.8" d="
				M-0.077,410.068"/>
			
				<line fill="none" stroke="#87868A" stroke-width="0.7" stroke-miterlimit="3.8636" x1="5.834" y1="404.872" x2="588.508" y2="404.872"/>
			
				<line fill="none" stroke="#87868A" stroke-width="0.7" stroke-miterlimit="3.8636" x1="5.834" y1="664.7" x2="588.508" y2="664.7"/>
			
				<line fill="none" stroke="#87868A" stroke-width="0.7" stroke-miterlimit="3.8636" x1="5.834" y1="456.437" x2="588.508" y2="456.437"/>
			
				<line fill="none" stroke="#87868A" stroke-width="0.7" stroke-miterlimit="3.8636" x1="5.834" y1="248.747" x2="588.508" y2="248.747"/>
			
				<line fill="none" stroke="#87868A" stroke-width="0.7" stroke-miterlimit="3.8636" x1="5.834" y1="560.773" x2="588.508" y2="560.773"/>
			
				<line fill="none" stroke="#87868A" stroke-width="0.7" stroke-miterlimit="3.8636" x1="5.834" y1="352.921" x2="588.508" y2="352.921"/>
			<path fill="none" stroke="#87868A" stroke-width="0.4" stroke-miterlimit="3.8636" d="M588.508,399.676"/>
			<path fill="none" stroke="#87868A" stroke-width="0.4" stroke-miterlimit="3.8636" stroke-dasharray="1.8,1.8" d="
				M-0.077,399.676"/>
			<path fill="none" stroke="#87868A" stroke-width="0.4" stroke-miterlimit="3.8636" d="M588.508,394.479"/>
			<path fill="none" stroke="#87868A" stroke-width="0.4" stroke-miterlimit="3.8636" stroke-dasharray="1.8,1.8" d="
				M-0.077,394.479"/>
			<path fill="none" stroke="#87868A" stroke-width="0.4" stroke-miterlimit="3.8636" d="M588.508,389.283"/>
			<path fill="none" stroke="#87868A" stroke-width="0.4" stroke-miterlimit="3.8636" stroke-dasharray="1.8,1.8" d="
				M-0.077,389.283"/>
			<path fill="none" stroke="#87868A" stroke-width="0.4" stroke-miterlimit="3.8636" d="M588.508,384.086"/>
			<path fill="none" stroke="#87868A" stroke-width="0.4" stroke-miterlimit="3.8636" stroke-dasharray="1.8,1.8" d="
				M-0.077,384.086"/>
			<path fill="none" stroke="#87868A" stroke-width="0.4" stroke-miterlimit="3.8636" d="M588.508,378.89"/>
			<path fill="none" stroke="#87868A" stroke-width="0.4" stroke-miterlimit="3.8636" stroke-dasharray="1.8,1.8" d="M-0.077,378.89
				"/>
			<path fill="none" stroke="#87868A" stroke-width="0.4" stroke-miterlimit="3.8636" d="M588.508,373.693"/>
			<path fill="none" stroke="#87868A" stroke-width="0.4" stroke-miterlimit="3.8636" stroke-dasharray="1.8,1.8" d="
				M-0.077,373.693"/>
			<path fill="none" stroke="#87868A" stroke-width="0.4" stroke-miterlimit="3.8636" d="M588.508,368.497"/>
			<path fill="none" stroke="#87868A" stroke-width="0.4" stroke-miterlimit="3.8636" stroke-dasharray="1.8,1.8" d="
				M-0.077,368.497"/>
			<path fill="none" stroke="#87868A" stroke-width="0.4" stroke-miterlimit="3.8636" d="M588.508,363.301"/>
			<path fill="none" stroke="#87868A" stroke-width="0.4" stroke-miterlimit="3.8636" stroke-dasharray="1.8,1.8" d="
				M-0.077,363.301"/>
			<path fill="none" stroke="#87868A" stroke-width="0.4" stroke-miterlimit="3.8636" d="M588.508,358.104"/>
			<path fill="none" stroke="#87868A" stroke-width="0.4" stroke-miterlimit="3.8636" stroke-dasharray="1.8,1.8" d="
				M-0.077,358.104"/>
			<path fill="none" stroke="#87868A" stroke-width="0.4" stroke-miterlimit="3.8636" d="M588.508,352.908"/>
			<path fill="none" stroke="#87868A" stroke-width="0.4" stroke-miterlimit="3.8636" stroke-dasharray="1.8,1.8" d="
				M-0.077,352.908"/>
			<path fill="none" stroke="#87868A" stroke-width="0.4" stroke-miterlimit="3.8636" d="M588.508,347.712"/>
			<path fill="none" stroke="#87868A" stroke-width="0.4" stroke-miterlimit="3.8636" stroke-dasharray="1.8,1.8" d="
				M-0.077,347.712"/>
			<path fill="none" stroke="#87868A" stroke-width="0.4" stroke-miterlimit="3.8636" d="M588.508,342.515"/>
			<path fill="none" stroke="#87868A" stroke-width="0.4" stroke-miterlimit="3.8636" stroke-dasharray="1.8,1.8" d="
				M-0.077,342.515"/>
			<path fill="none" stroke="#87868A" stroke-width="0.4" stroke-miterlimit="3.8636" d="M588.508,337.32"/>
			<path fill="none" stroke="#87868A" stroke-width="0.4" stroke-miterlimit="3.8636" d="M588.508,332.122"/>
			<path fill="none" stroke="#87868A" stroke-width="0.4" stroke-miterlimit="3.8636" d="M588.508,326.927"/>
			<path fill="none" stroke="#87868A" stroke-width="0.4" stroke-miterlimit="3.8636" d="M588.508,321.731"/>
			<path fill="none" stroke="#87868A" stroke-width="0.4" stroke-miterlimit="3.8636" d="M588.508,316.534"/>
			<path fill="none" stroke="#87868A" stroke-width="0.4" stroke-miterlimit="3.8636" stroke-dasharray="1.8,1.8" d="
				M-0.077,316.534"/>
			<path fill="none" stroke="#87868A" stroke-width="0.4" stroke-miterlimit="3.8636" d="M588.508,311.338"/>
			<path fill="none" stroke="#87868A" stroke-width="0.4" stroke-miterlimit="3.8636" stroke-dasharray="1.8,1.8" d="
				M-0.077,311.338"/>
		</g>
		<path fill="none" stroke="#87868A" stroke-width="0.7" stroke-miterlimit="3.8636" d="M588.805,975.657"/>
		<path fill="none" stroke="#87868A" stroke-width="0.7" stroke-miterlimit="3.8636" d="M588.508,803.753"/>
	</g>
	
		<line fill="none" stroke="#87868A" stroke-width="0.7" stroke-miterlimit="3.8636" x1="6.13" y1="820.577" x2="588.805" y2="820.577"/>
	
		<line fill="none" stroke="#87868A" stroke-width="0.7" stroke-miterlimit="3.8636" x1="6.13" y1="768.627" x2="588.805" y2="768.627"/>
	
		<line fill="none" stroke="#87868A" stroke-width="0.7" stroke-miterlimit="3.8636" x1="3.433" y1="820.603" x2="586.108" y2="820.603"/>
	<g>
		<g>
			
				<text transform="matrix(1 0 0 1 4.0823 1016.1202)" display="none" fill="#B1B0B1" font-family="'OpenSans-Regular'" font-size="15px">220</text>
		</g>
		<g>
			
				<text transform="matrix(1 0 0 1 6.1902 937.9516)" display="none" fill="#B1B0B1" font-family="'OpenSans-Regular'" font-size="15px">240</text>
		</g>
		<g>
			
				<text transform="matrix(1 0 0 1 6.1034 186.2524)" display="none" fill="#B1B0B1" font-family="'OpenSans-Regular'" font-size="15px">1 billón de €</text>
		</g>
		<g>
			
				<text transform="matrix(1 0 0 1 4.1379 146.6527)" display="none" fill="#313131" font-family="'OpenSans-Regular'" font-size="20px">Empresas del sector que cotizan en bolsa</text>
		</g>
		<g>
			<g>
				
					<text transform="matrix(1 0 0 1 6.1032 503.1914)" display="none" fill="#B1B0B1" font-family="'OpenSans-Regular'" font-size="11.8918px">700</text>
			</g>
			<g>
				
					<text transform="matrix(1 0 0 1 4.0821 607.5273)" display="none" fill="#B1B0B1" font-family="'OpenSans-Regular'" font-size="15px">600</text>
			</g>
			<g>
				
					<text transform="matrix(1 0 0 1 4.1378 711.4539)" display="none" fill="#B1B0B1" font-family="'OpenSans-Regular'" font-size="15px">500</text>
			</g>
			<g>
				
					<text transform="matrix(1 0 0 1 6.1032 398.1718)" display="none" fill="#B1B0B1" font-family="'OpenSans-Regular'" font-size="15px">800</text>
			</g>
			<g>
				
					<text transform="matrix(1 0 0 1 6.1032 295.5021)" display="none" fill="#B1B0B1" font-family="'OpenSans-Regular'" font-size="15px">900 miles de millones </text>
			</g>
		</g>
		<g>
			
				<text transform="matrix(0.9906 0 0 1 5.8351 814.9305)" display="none" fill="#B1B0B1" font-family="'OpenSans-Regular'" font-size="15px">400</text>
		</g>
		<g>
			
				<text transform="matrix(1 0 0 1 4.0821 1094.0157)" display="none" fill="#B1B0B1" font-family="'OpenSans-Regular'" font-size="15px">200</text>
		</g>
		<g>
			<text transform="matrix(0.9923 0 0 1 3.7053 2272.7354)" fill="#B1B0B1" font-family="'OpenSans-Regular'" font-size="15px">0</text>
		</g>
		<g>
			
				<text transform="matrix(0.9923 0 0 1 4.082 2062.8884)" display="none" fill="#B1B0B1" font-family="'OpenSans-Regular'" font-size="15px">20</text>
		</g>
		<g>
			<text transform="matrix(1 0 0 1 4.082 1840.1364)" fill="#B1B0B1" font-family="'OpenSans-Regular'" font-size="15px">40</text>
		</g>
		<g>
			
				<text transform="matrix(1 0 0 1 4.0821 1634.9291)" display="none" fill="#B1B0B1" font-family="'OpenSans-Regular'" font-size="15px">60</text>
		</g>
		<g>
			
				<text transform="matrix(1 0 0 1 4.0821 1558.3813)" display="none" fill="#B1B0B1" font-family="'OpenSans-Regular'" font-size="15px">80</text>
		</g>
		<g>
			
				<text transform="matrix(1 0 0 1 4.1378 1478.8398)" display="none" fill="#B1B0B1" font-family="'OpenSans-Regular'" font-size="15px">100</text>
		</g>
		<g>
			
				<text transform="matrix(1 0 0 1 4.0821 1401.181)" display="none" fill="#B1B0B1" font-family="'OpenSans-Regular'" font-size="15px">120</text>
		</g>
		<g>
			
				<text transform="matrix(1 0 0 1 4.1378 1324.9994)" display="none" fill="#B1B0B1" font-family="'OpenSans-Regular'" font-size="15px">140</text>
		</g>
		<g>
			
				<text transform="matrix(1 0 0 1 4.0821 1247.9512)" display="none" fill="#B1B0B1" font-family="'OpenSans-Regular'" font-size="15px">160</text>
		</g>
		<g>
			
				<text transform="matrix(1 0 0 1 4.0823 1169.7483)" display="none" fill="#B1B0B1" font-family="'OpenSans-Regular'" font-size="15px">180</text>
		</g>
	</g>
	<path fill="none" stroke="#87868A" stroke-width="0.7" stroke-miterlimit="3.8636" d="M588.805,982.022"/>
	<path fill="none" stroke="#87868A" stroke-width="0.7" stroke-miterlimit="3.8636" d="M4.138,982.022"/>
	
		<line fill="none" stroke="#87868A" stroke-width="0.7" stroke-miterlimit="3.8636" x1="4.132" y1="943.513" x2="588.805" y2="943.513"/>
	<path fill="none" stroke="#87868A" stroke-width="0.7" stroke-miterlimit="3.8636" d="M586.108,716.65"/>
	<path fill="none" stroke="#87868A" stroke-width="0.7" stroke-miterlimit="3.8636" d="M5.835,716.65"/>
	<g style="opacity:0.75;">
		<g>
			<path fill="#E2B600" stroke="#E2B600" stroke-miterlimit="10" d="M64.192,2169.902h9.796c0,5.4-4.39,9.783-9.796,9.783
				s-9.791-4.383-9.791-9.783c0-5.409,4.385-9.804,9.791-9.804s9.796,4.395,9.796,9.804l0,0H64.192z"/>
		</g>
		<g>
			<path fill="#AF6166" stroke="#AF6166" stroke-miterlimit="10" d="M412.742,1645.092h23.537c0,12.998-10.548,23.525-23.537,23.525
				c-12.983,0-23.527-10.527-23.527-23.525c0-12.995,10.543-23.531,23.527-23.531c12.989,0,23.537,10.536,23.537,23.531l0,0H412.742
				z"/>
		</g>
		<g>
			<path fill="#66BBCE" stroke="#66BBCE" stroke-miterlimit="10" d="M367.348,1958.33h15.231c0,8.651-7.22,15.618-15.959,15.211
				c-7.752-0.361-14.125-6.743-14.481-14.495c-0.4-8.735,6.562-15.945,15.208-15.945c8.408,0,15.231,6.819,15.231,15.228l0,0
				H367.348z"/>
		</g>
		<g>
			<path fill="#AF6166" stroke="#AF6166" stroke-miterlimit="10" d="M549.68,1605.953h25.431c0,14.052-11.381,25.438-25.431,25.438
				c-14.047,0-25.428-11.387-25.428-25.438c0-14.037,11.381-25.427,25.428-25.427c14.03,0,25.431,11.398,25.431,25.427H549.68z"/>
		</g>
		<g>
			<path fill="#66BBCE" stroke="#66BBCE" stroke-miterlimit="10" d="M111.388,1160.528h41.689c0,23.02-18.664,41.685-41.689,41.685
				c-23.019,0-41.682-18.665-41.682-41.685c0-23.019,18.664-41.681,41.682-41.681c23.026,0,41.689,18.662,41.689,41.681l0,0H111.388
				z"/>
		</g>
		<g>
			<path fill="#66BBCE" stroke="#66BBCE" stroke-miterlimit="10" d="M181.744,1057.84h44.597c0,24.628-19.97,44.591-44.597,44.591
				s-44.593-19.963-44.593-44.591c0-24.63,19.966-44.6,44.593-44.6s44.597,19.97,44.597,44.6l-0.013-0.778L181.744,1057.84z"/>
		</g>
		<g>
			<path fill="#66BBCE" stroke="#66BBCE" stroke-miterlimit="10" d="M215.004,1212.055h40.087c0,22.143-17.942,40.088-40.087,40.088
				c-22.14,0-40.088-17.945-40.088-40.088c0-22.149,17.948-40.094,40.088-40.094c22.145,0,40.087,17.945,40.087,40.094l0,0H215.004z
				"/>
		</g>
		<g>
			<path fill="#66BBCE" stroke="#66BBCE" stroke-miterlimit="10" d="M349.22,1335.178h36.13c0,19.954-16.177,36.125-36.13,36.125
				c-19.945,0-36.125-16.171-36.125-36.125c0-19.948,16.18-36.125,36.125-36.125c19.928,0,36.13,16.197,36.13,36.125H349.22z"/>
		</g>
		<g>
			<path fill="#66BBCE" stroke="#66BBCE" stroke-miterlimit="10" d="M548.936,1397.109h34.118c0,18.848-15.276,34.128-34.118,34.128
				c-18.842,0-34.116-15.28-34.116-34.128c0-18.833,15.274-34.108,34.116-34.108c18.842,0,34.118,15.274,34.118,34.108l0,0H548.936z
				"/>
		</g>
		<g>
			<path fill="#66BBCE" stroke="#66BBCE" stroke-miterlimit="10" d="M451.526,1413.954H484.9c0,18.427-14.933,33.367-33.375,33.367
				c-18.433,0-33.373-14.94-33.373-33.367c0-18.436,14.94-33.379,33.373-33.379c18.442,0,33.375,14.943,33.375,33.379l0,0H451.526z"
				/>
		</g>
		<g>
			<path fill="#66BBCE" stroke="#66BBCE" stroke-miterlimit="10" d="M556.796,1498.182h30.195c0,16.676-13.519,30.197-30.195,30.197
				c-16.682,0-30.194-13.521-30.194-30.197c0-16.673,13.512-30.203,30.194-30.203c16.676,0,30.195,13.529,30.195,30.203l0,0H556.796
				z"/>
		</g>
		<g>
			<path fill="#66BBCE" stroke="#66BBCE" stroke-miterlimit="10" d="M363.688,1558.381h27.652c0,15.268-12.381,27.645-27.652,27.645
				c-15.265,0-27.646-12.377-27.646-27.645c0-15.271,12.381-27.645,27.646-27.645c15.271,0,27.652,12.374,27.652,27.645l0,0H363.688
				z"/>
		</g>
		<g>
			<path fill="#66BBCE" stroke="#66BBCE" stroke-miterlimit="10" d="M314.396,1513.914h29.436c0,16.258-13.174,29.442-29.436,29.442
				c-16.258,0-29.428-13.184-29.428-29.442c0-16.247,13.169-29.433,29.428-29.433c16.263,0,29.436,13.187,29.436,29.433l0,0H314.396
				z"/>
		</g>
		<g>
			<path fill="#66BBCE" stroke="#66BBCE" stroke-miterlimit="10" d="M478.053,1548.172h28.101c0,15.512-12.577,28.104-28.101,28.104
				c-15.518,0-28.091-12.591-28.091-28.104c0-15.521,12.573-28.089,28.091-28.089c15.524,0,28.101,12.568,28.101,28.089l0,0H478.053
				z"/>
		</g>
		<g>
			<path fill="#66BBCE" stroke="#66BBCE" stroke-miterlimit="10" d="M255.103,1569.734h27.034c0,14.929-12.104,27.032-27.034,27.032
				c-14.923,0-27.019-12.104-27.019-27.032c0-14.929,12.096-27.038,27.019-27.038c14.93,0,27.034,12.109,27.034,27.038l0,0H255.103z
				"/>
		</g>
		<g>
			<path fill="#66BBCE" stroke="#66BBCE" stroke-miterlimit="10" d="M398.619,1912.519h8.723c0,10.016-8.125,18.132-18.128,18.132
				c-10.003,0-18.128-8.117-18.128-18.132c0-10.013,8.125-18.124,18.128-18.124c9.999,0,18.128,8.122,18.128,18.124H398.619z"/>
		</g>
		<g>
			<path fill="#66BBCE" stroke="#66BBCE" stroke-miterlimit="10" d="M268.947,1652.915h22.981c0,12.684-10.292,22.971-22.981,22.971
				c-12.684,0-22.977-10.286-22.977-22.971c0-12.681,10.292-22.982,22.977-22.982c12.689,0,22.981,10.301,22.981,22.982l0,0H268.947
				z"/>
		</g>
		<g>
			<path fill="#66BBCE" stroke="#66BBCE" stroke-miterlimit="10" d="M570.308,1918.728h17.936c0,9.906-8.03,17.936-17.936,17.936
				s-17.941-8.03-17.941-17.936c0-9.917,8.035-17.941,17.941-17.941c9.897,0,17.936,8.036,17.936,17.941H570.308z"/>
		</g>
		<g>
			<path fill="#66BBCE" stroke="#66BBCE" stroke-miterlimit="10" d="M121.404,1952.72h17.308c0,9.551-7.749,17.297-17.308,17.297
				c-13.632,0-23.56-15.739-12.644-30.012c14.267-10.822,29.952-0.899,29.952,12.715l0,0H121.404z"/>
		</g>
		<g>
			<path fill="#66BBCE" stroke="#66BBCE" stroke-miterlimit="10" d="M314.396,1957.815h17.23c0,9.508-7.71,17.225-17.23,17.225
				c-9.52,0-17.222-7.717-17.222-17.225c0-9.519,7.702-17.227,17.222-17.227c9.52,0,17.23,7.708,17.23,17.227l0,0H314.396z"/>
		</g>
		<g>
			<path fill="#66BBCE" stroke="#66BBCE" stroke-miterlimit="10" d="M465.348,1968.814h16.784c0,9.265-7.512,16.78-16.784,16.78
				c-9.263,0-16.782-7.515-16.782-16.78c0-9.274,7.519-16.786,16.782-16.786c9.272,0,16.784,7.512,16.784,16.786l0,0H465.348z"/>
		</g>
		<g>
			<path fill="#66BBCE" stroke="#66BBCE" stroke-miterlimit="10" d="M448.567,2009.039h15.425c0,8.528-6.905,15.427-15.425,15.427
				c-8.523,0-15.428-6.899-15.428-15.427c0-8.513,6.905-15.427,15.428-15.427c8.52,0,15.425,6.913,15.425,15.427l0,0H448.567z"/>
		</g>
		<g>
			<path fill="#66BBCE" stroke="#66BBCE" stroke-miterlimit="10" d="M154.899,1986.254h16.08c0,8.886-7.19,16.082-16.08,16.082
				c-8.881,0-16.075-7.196-16.075-16.082c0-8.88,7.194-16.073,16.075-16.073c8.89,0,16.08,7.193,16.08,16.073l0,0H154.899z"/>
		</g>
		<g>
			<path fill="#66BBCE" stroke="#66BBCE" stroke-miterlimit="10" d="M69.366,2110.684h12.648c0,6.981-5.666,12.642-12.648,12.642
				c-6.984,0-12.641-5.66-12.641-12.642c0-6.99,5.657-12.647,12.641-12.647c6.982,0,12.648,5.657,12.648,12.647l0,0H69.366z"/>
		</g>
		<g>
			<path fill="#66BBCE" stroke="#66BBCE" stroke-miterlimit="10" d="M304.719,2164.883h10.324c0,5.698-4.622,10.318-10.324,10.318
				c-5.699,0-10.317-4.619-10.317-10.318c0-5.693,4.618-10.323,10.317-10.323c5.702,0,10.324,4.631,10.324,10.323l0,0H304.719z"/>
		</g>
		<g>
			<path fill="#E2B600" stroke="#E2B600" stroke-miterlimit="10" d="M74.798,1593.747h26.278c0,14.505-11.767,26.277-26.278,26.277
				c-14.503,0-26.273-11.773-26.273-26.277c0-14.51,11.77-26.277,26.273-26.277c14.511,0,26.278,11.767,26.278,26.277l0,0H74.798z"
				/>
		</g>
		<g>
			<path fill="#66BBCE" stroke="#66BBCE" stroke-miterlimit="10" d="M302.399,1886.016h18.677c0,10.311-8.373,18.667-18.677,18.667
				c-10.308,0-18.675-8.356-18.675-18.667c0-10.323,8.367-18.685,18.675-18.685c10.304,0,18.677,8.37,18.677,18.685H302.399z"/>
		</g>
		<g>
			<path fill="#66BBCE" stroke="#66BBCE" stroke-miterlimit="10" d="M206.126,1955.434h17.168c0,9.486-7.682,17.178-17.168,17.178
				c-9.479,0-17.164-7.692-17.164-17.178c0-9.478,7.685-17.155,17.164-17.155c9.486,0,17.168,7.677,17.168,17.155l0,0H206.126z"/>
		</g>
		<g>
			<g>
				<path fill="#66BBCE" stroke="#66BBCE" stroke-miterlimit="10" d="M145.471,1874.187h18.889c0,10.434-8.454,18.885-18.889,18.885
					c-10.43,0-18.887-8.451-18.887-18.885c0-10.437,8.457-18.891,18.887-18.891c10.434,0,18.889,8.454,18.889,18.891l0,0H145.471z"
					/>
			</g>
			<g>
				<path fill="#E2B600" stroke="#E2B600" stroke-miterlimit="10" d="M145.471,1874.187h18.889c0,10.434-8.454,18.885-18.889,18.885
					c-10.43,0-18.887-8.451-18.887-18.885c0-10.437,8.457-18.891,18.887-18.891c10.434,0,18.889,8.454,18.889,18.891l0,0H145.471z"
					/>
			</g>
		</g>
		<g>
			<g>
				<path fill="#66BBCE" stroke="#66BBCE" stroke-miterlimit="10" d="M423.763,2169.917h9.746c0,5.381-4.356,9.744-9.746,9.744
					c-5.377,0-9.743-4.363-9.743-9.744c0-5.384,4.366-9.746,9.743-9.746c5.39,0,9.746,4.363,9.746,9.746l0,0H423.763z"/>
			</g>
			<g>
				<path fill="#E2B600" stroke="#E2B600" stroke-miterlimit="10" d="M423.763,2169.917h9.746c0,5.381-4.356,9.744-9.746,9.744
					c-5.377,0-9.743-4.363-9.743-9.744c0-5.384,4.366-9.746,9.743-9.746c5.39,0,9.746,4.363,9.746,9.746l0,0H423.763z"/>
			</g>
		</g>
		<g>
			<path fill="#E2B600" stroke="#E2B600" stroke-miterlimit="10" d="M154.901,2256.657h5.448c0,3.009-2.436,5.445-5.448,5.445
				c-3.008,0-5.446-2.437-5.446-5.445c0-3.012,2.439-5.448,5.446-5.448c3.012,0,5.448,2.437,5.448,5.448l0,0H154.901z"/>
		</g>
		<g>
			<path fill="#E2B600" stroke="#E2B600" stroke-miterlimit="10" d="M241.057,2020.229h15.262c0,8.423-6.837,15.259-15.262,15.259
				c-8.423,0-15.247-6.836-15.247-15.259c0-8.423,6.824-15.25,15.247-15.25c8.425,0,15.262,6.827,15.262,15.25l0,0H241.057z"/>
		</g>
		<g>
			<path fill="#66BBCE" stroke="#66BBCE" stroke-miterlimit="10" d="M478.057,1064.901h44.349c0,24.492-19.851,44.341-44.349,44.341
				c-24.489,0-44.347-19.85-44.347-44.341c0-24.489,19.858-44.339,44.347-44.339c24.466,0,44.349,19.867,44.349,44.339H478.057z"/>
		</g>
		<g>
			<path fill="#66BBCE" stroke="#66BBCE" stroke-miterlimit="10" d="M367.148,1070.398h44.182c0,24.393-19.779,44.176-44.182,44.176
				c-24.4,0-44.182-19.783-44.182-44.176c0-24.405,19.781-44.188,44.182-44.188c24.374,0,44.182,19.811,44.182,44.188H367.148z"/>
		</g>
		<g>
			<path fill="#66BBCE" stroke="#66BBCE" stroke-miterlimit="10" d="M363.684,1450.072h31.895c0,17.614-14.28,31.901-31.895,31.901
				c-17.608,0-31.882-14.287-31.882-31.901c0-17.611,14.274-31.892,31.882-31.892c17.6,0,31.895,14.299,31.895,31.892H363.684z"/>
		</g>
		<g>
			<path fill="#66BBCE" stroke="#66BBCE" stroke-miterlimit="10" d="M81.905,1014.363h45.751c0,25.264-20.482,45.744-45.751,45.744
				c-25.264,0-45.737-20.48-45.737-45.744s20.472-45.742,45.737-45.742c25.269,0,45.751,20.478,45.751,45.742l-0.015-0.803
				L81.905,1014.363z"/>
		</g>
		<g>
			<path fill="#E2B600" stroke="#E2B600" stroke-miterlimit="10" d="M500.959,1874.412h18.803c0,11.058-9.541,19.89-20.855,18.694
				c-8.619-0.911-15.612-7.84-16.612-16.449c-1.321-11.369,7.543-21.039,18.664-21.039c10.392,0,18.803,8.426,18.803,18.794l0,0
				H500.959z"/>
		</g>
		<g>
			<path fill="#E2B600" stroke="#E2B600" stroke-miterlimit="10" d="M233.611,2062.89h14.348c0,7.916-6.426,14.342-14.348,14.342
				c-7.917,0-14.339-6.427-14.339-14.342c0-7.927,6.422-14.345,14.339-14.345c7.922,0,14.348,6.418,14.348,14.345l0,0H233.611z"/>
		</g>
		<g>
			<path fill="#E2B600" stroke="#E2B600" stroke-miterlimit="10" d="M162.419,1308.412h37.078c0,20.477-16.604,37.06-37.078,37.06
				c-20.469,0-37.069-16.583-37.069-37.06c0-20.471,16.599-37.072,37.069-37.072c20.454,0,37.078,16.621,37.078,37.072H162.419z"/>
		</g>
		<g>
			<path fill="#E2B600" stroke="#E2B600" stroke-miterlimit="10" d="M188.642,2084.095h13.343c0,7.853-6.793,14.135-14.835,13.262
				c-6.112-0.663-11.071-5.606-11.759-11.715c-0.907-8.058,5.378-14.885,13.25-14.885c7.373,0,13.343,5.972,13.343,13.338l0,0
				H188.642z"/>
		</g>
		<g>
			<path fill="#66BBCE" stroke="#66BBCE" stroke-miterlimit="10" d="M294.399,302.186h92.038c0,50.832-41.207,92.039-92.038,92.039
				c-50.827,0-92.031-41.207-92.031-92.039c0-50.827,41.203-92.031,92.031-92.031c50.83,0,92.038,41.203,92.038,92.031l0,0H294.399z
				"/>
		</g>
		<g>
			<path fill="#66BBCE" stroke="#66BBCE" stroke-miterlimit="10" d="M117.29,406.845h86.345c0,47.685-38.654,86.339-86.345,86.339
				c-47.686,0-86.333-38.654-86.333-86.339c0-47.682,38.647-86.338,86.333-86.338c47.69,0,86.345,38.656,86.345,86.338l0,0H117.29z"
				/>
		</g>
		<g>
			<path fill="#66BBCE" stroke="#66BBCE" stroke-miterlimit="10" d="M373.408,536.791h79.074c0,43.67-35.399,79.069-79.074,79.069
				c-43.671,0-79.063-35.399-79.063-79.069c0-43.667,35.392-79.068,79.063-79.068c43.674,0,79.074,35.401,79.074,79.068l0,0H373.408
				z"/>
		</g>
		<g>
			<path fill="#66BBCE" stroke="#66BBCE" stroke-miterlimit="10" d="M491.913,391.94h87.526c0,48.342-39.187,87.528-87.526,87.528
				c-48.336,0-87.52-39.186-87.52-87.528c0-48.339,39.184-87.523,87.52-87.523c48.339,0,87.526,39.185,87.526,87.523l0,0H491.913z"
				/>
		</g>
		<g>
			<path fill="#66BBCE" stroke="#66BBCE" stroke-miterlimit="10" d="M512.618,744.187h66.822c0,36.906-29.915,66.819-66.822,66.819
				c-36.911,0-66.826-29.913-66.826-66.819c0-36.901,29.915-66.824,66.826-66.824c36.906,0,66.822,29.923,66.822,66.824l0,0H512.618
				z"/>
		</g>
	</g>
	
		<line fill="none" stroke="#87868A" stroke-width="0.7" stroke-miterlimit="3.8636" stroke-dasharray="4,4" x1="-2.083" y1="872.83" x2="648.016" y2="872.83"/>
	
		<line fill="none" stroke="#87868A" stroke-width="0.7" stroke-miterlimit="3.8636" stroke-dasharray="4,4" x1="-2.083" y1="905.004" x2="648.016" y2="905.004"/>
	<path fill="none" d="M250.541,1310.095"/>
	<g>
		<path fill="none" stroke="#323232" stroke-miterlimit="10" d="M357.366,2155.228c1.309-1.549-8.169,30.229,44.086,25.13"/>
		<g>
			<polygon fill="#323232" points="407.342,2179.66 399.376,2183.908 401.001,2180.309 398.681,2177.114 			"/>
		</g>
	</g>
</g>
<style type="text/css">
#g-sintit3-Mesa_de_trabajo_1-img rect, #g-sintit3-Mesa_de_trabajo_1-img circle, #g-sintit3-Mesa_de_trabajo_1-img path, #g-sintit3-Mesa_de_trabajo_1-img line, #g-sintit3-Mesa_de_trabajo_1-img polyline { vector-effect: non-scaling-stroke; }
</style>
</svg>

